<svg width="152" height="112" viewBox="0 0 152 112" fill="none" xmlns="http://www.w3.org/2000/svg">
<rect width="152" height="112" fill="white"/>
<g clip-path="url(#clip0_456_125228)">
<path d="M47.4521 54.4832C47.4521 56.6182 45.7207 58.3495 43.5858 58.3495H37.2982V50.617H43.5858C45.7207 50.6039 47.4521 52.3353 47.4521 54.4832ZM52.9586 54.5093C52.9586 49.4454 48.858 45.3318 43.7941 45.3318H32V71.3673H37.2982V63.6738H43.7941C48.858 63.6608 52.9586 59.5602 52.9586 54.5093ZM72.8497 71.3673H91.9988V66.0821H78.1349V63.1921C80.5432 62.4892 83.0035 61.3696 85.4769 59.8205L87.716 58.4276L84.9041 53.9365L82.6521 55.3424C81.0379 56.3578 79.5148 57.0998 78.1089 57.6335V50.617H91.9728V45.3318H72.8497V58.7661C70.2722 58.8572 68.2544 58.1803 66.7444 57.3471C63.7373 55.6548 60.1444 51.7495 60.1444 42.7022V40.0596H54.8462V42.7022C54.8462 51.8927 58.0746 58.5578 64.1669 61.9684C66.6663 63.3744 69.426 64.0643 72.329 64.0643C72.4982 64.0643 72.6805 64.0643 72.8497 64.0513V71.3673ZM114.767 58.4016C114.767 59.5862 114.598 60.6927 114.259 61.7081C113.921 62.7235 113.426 63.5957 112.801 64.3247C112.163 65.0537 111.395 65.6264 110.497 66.043C109.599 66.4596 108.596 66.6679 107.477 66.6679C106.357 66.6679 105.342 66.4596 104.444 66.043C103.533 65.6264 102.764 65.0537 102.127 64.3247C101.489 63.5957 101.007 62.7235 100.669 61.7081C100.33 60.6927 100.161 59.5992 100.161 58.4016C100.161 57.217 100.33 56.1105 100.669 55.0951C101.007 54.0797 101.502 53.2075 102.127 52.4655C102.764 51.7235 103.533 51.1507 104.444 50.7341C105.355 50.3176 106.357 50.1093 107.477 50.1093C108.596 50.1093 109.599 50.3176 110.497 50.7341C111.395 51.1507 112.163 51.7235 112.801 52.4655C113.439 53.2075 113.921 54.0797 114.259 55.0951C114.598 56.1105 114.767 57.2039 114.767 58.4016ZM120 58.4016C120 56.4619 119.714 54.6525 119.128 52.9992C118.542 51.3329 117.709 49.901 116.615 48.6903C115.522 47.4797 114.207 46.5294 112.671 45.8525C111.135 45.1755 109.404 44.8371 107.477 44.8371C105.563 44.8371 103.819 45.1755 102.27 45.8525C100.721 46.5294 99.3929 47.4797 98.2994 48.6903C97.2059 49.901 96.3728 51.346 95.787 52.9992C95.2012 54.6655 94.9148 56.4619 94.9148 58.4016C94.9148 60.3412 95.2012 62.1507 95.787 63.8039C96.3728 65.4702 97.2059 66.9022 98.2994 68.0998C99.3929 69.2974 100.721 70.2477 102.27 70.9247C103.819 71.6016 105.563 71.94 107.477 71.94C109.391 71.94 111.122 71.6016 112.671 70.9247C114.207 70.2477 115.535 69.3105 116.615 68.0998C117.709 66.9022 118.542 65.4702 119.128 63.8039C119.714 62.1507 120 60.3412 120 58.4016Z" fill="black"/>
</g>
<defs>
<clipPath id="clip0_456_125228">
<rect width="88" height="31.8805" fill="white" transform="translate(32 40.0596)"/>
</clipPath>
</defs>
</svg>
