<svg width="145" height="112" viewBox="0 0 145 112" fill="none" xmlns="http://www.w3.org/2000/svg">
<rect width="143.928" height="112" transform="translate(0.936523)" fill="white"/>
<g clip-path="url(#clip0_456_125297)">
<path d="M112.865 51.7162H83.792V44.2749H112.865V51.7162Z" fill="#E669A2"/>
<path d="M109.089 51.7164H83.792V33.105H109.089V51.7164Z" fill="#F3BE26"/>
<path d="M98.6373 51.7163H83.792V25.6675H98.6373V51.7163Z" fill="#EE9C34"/>
<path d="M101.558 51.7159H83.792V28.5737H101.558V51.7159Z" fill="#F3BC87"/>
<path d="M83.7881 28.5781V51.7136H98.6359V28.5781H83.7881Z" fill="#E3721C"/>
<path d="M68.9053 51.7163H83.7918V55.4374H68.9053V51.7163Z" fill="#AD1B02"/>
<path d="M83.7881 33.1011V51.7142H101.567V33.1011H83.7881Z" fill="#E88D14"/>
<path d="M83.7881 33.1011V51.7142H98.6359V33.1011H83.7881Z" fill="#D85604"/>
<path d="M93.0756 51.7163H83.792V40.5454H93.0756V51.7163Z" fill="#C14303"/>
<path d="M83.7881 44.2803V51.7139H109.097V44.2803H83.7881Z" fill="#DB4E18"/>
<path d="M83.7881 44.2803V51.7139H101.567V44.2803H83.7881Z" fill="#D1390D"/>
<path d="M83.7881 44.2803V51.7139H98.6359V44.2803H83.7881Z" fill="#C22303"/>
<path d="M83.7881 44.2803V51.7139H93.085V44.2803H83.7881Z" fill="#AD1B02"/>
<path d="M87.0286 65.7316C84.4956 66.1819 83.1447 68.0957 83.1447 71.4166C83.1447 74.7939 84.9459 77.0454 87.5914 77.0454C88.8861 77.0454 90.0118 76.5951 92.3759 75.413C92.3759 78.1711 92.3759 78.1711 92.3759 78.1711C89.5052 79.522 87.8166 79.8598 85.5651 79.8598C83.0322 79.8598 81.231 79.2406 79.8238 77.7208C78.3603 76.2574 77.5723 74.3436 77.5723 72.1484C77.5723 67.3639 81.1747 64.043 86.4094 64.043C89.8429 64.043 92.2633 65.6753 92.2633 67.9831C92.2633 69.5029 91.1376 70.5723 89.5052 70.5723C88.6609 70.5723 87.9854 70.2909 87.0286 69.7843" fill="black"/>
<path d="M74.3646 72.1484C76.6724 69.2777 77.5167 68.0957 77.5167 66.6885C77.5167 65.2813 76.391 64.043 74.8149 64.043C73.9143 64.043 73.07 64.5496 72.676 64.9999C72.676 70.91 72.676 70.91 72.676 70.91C68.9047 75.9759 68.9047 75.9759 68.9047 75.9759C68.9047 64.4933 68.9047 64.4933 68.9047 64.4933C65.3023 64.4933 65.3023 64.4933 65.3023 64.4933C59.3358 74.3436 59.3358 74.3436 59.3358 74.3436C59.3358 64.4933 59.3358 64.4933 59.3358 64.4933C57.3095 64.4933 57.3095 64.4933 57.3095 64.4933C51.8496 65.7316 51.8496 65.7316 51.8496 65.7316C51.8496 67.1388 51.8496 67.1388 51.8496 67.1388C54.8328 67.4202 54.8328 67.4202 54.8328 67.4202C54.8328 79.6346 54.8328 79.6346 54.8328 79.6346C58.6041 79.6346 58.6041 79.6346 58.6041 79.6346C64.3454 70.1783 64.3454 70.1783 64.3454 70.1783C64.3454 79.6346 64.3454 79.6346 64.3454 79.6346C68.567 79.6346 68.567 79.6346 68.567 79.6346" fill="black"/>
<path d="M40.4228 77.7206C40.8731 77.7206 40.9856 77.7206 41.2671 77.7206C44.3066 77.7206 45.9952 75.8631 45.9952 72.1481C45.9952 69.0523 44.6443 67.3637 42.1114 67.3637C41.7737 67.3637 41.2671 67.4199 40.4228 67.5888V77.7206ZM40.4228 84.3625C42.8994 84.9254 42.8994 84.9254 42.8994 84.9254C42.8994 86.3325 42.8994 86.3325 42.8994 86.3325C33.1617 86.3325 33.1617 86.3325 33.1617 86.3325C33.1617 84.9254 33.1617 84.9254 33.1617 84.9254C35.4132 84.3625 35.4132 84.3625 35.4132 84.3625C35.4132 67.3637 35.4132 67.3637 35.4132 67.3637C32.9365 67.3637 32.9365 67.3637 32.9365 67.3637C32.9365 65.9565 32.9365 65.9565 32.9365 65.9565C38.8467 64.1553 38.8467 64.1553 38.8467 64.1553C40.4228 64.1553 40.4228 64.1553 40.4228 64.1553C40.4228 66.1816 40.4228 66.1816 40.4228 66.1816C43.1808 64.493 44.1377 64.2116 45.6012 64.2116C48.8659 64.2116 51.3425 67.2511 51.3425 71.4726C51.3425 76.3134 48.0216 79.6343 42.9557 79.6343C42.3928 79.6343 41.4359 79.578 40.4228 79.5218" fill="black"/>
</g>
<defs>
<clipPath id="clip0_456_125297">
<rect width="79.9282" height="60.6651" fill="white" transform="translate(32.9365 25.6675)"/>
</clipPath>
</defs>
</svg>
