<svg width="542" height="493" viewBox="0 0 542 493" fill="none" xmlns="http://www.w3.org/2000/svg">
<path d="M106.405 93.7423C120.87 79.2072 136.249 77.7659 152.544 89.4183C164.325 97.8328 170.13 107.912 169.959 119.656C169.788 131.399 165.139 143.778 156.012 156.79L118.844 209.774L0 124.741L37.0465 71.9397C45.46 59.9422 54.4515 52.2129 64.021 48.7517C73.5905 45.2905 83.5268 47.2494 93.8301 54.6286C100.615 59.4804 104.927 65.1391 106.767 71.6048C108.606 78.0704 108.37 85.3735 106.058 93.5139L106.405 93.7423ZM49.5009 111.236L69.8863 125.807L80.2298 111.069C82.7703 107.852 84.1716 103.87 84.2104 99.7563C84.0596 96.224 82.2301 93.179 78.722 90.6211C75.3294 88.1851 72.0274 87.5761 68.8459 88.7027C65.1121 90.2763 61.952 92.978 59.7992 96.4371L49.5009 111.236ZM125.629 143.042C129.158 138.002 130.937 133.541 130.967 129.613C130.997 125.685 128.992 122.259 124.936 119.351C120.88 116.443 117.216 115.758 113.658 117.067C110.099 118.377 106.511 121.635 102.907 126.766L92.3524 141.854L115.105 158.13L125.629 143.042Z" fill="black"/>
<path d="M261.694 90.3619C256.577 82.4447 255.421 72.5534 258.226 60.6879L272.565 0L311.029 9.25698L299.328 58.7238C298.077 64.0374 298.288 68.2548 299.977 71.4064C300.813 72.9674 301.981 74.3227 303.396 75.3754C304.811 76.4282 306.439 77.1524 308.164 77.4965C317.482 79.7397 323.765 73.9795 327.011 60.2159L337.566 15.6668L375.004 24.6802L352.704 119.077L316.517 110.353L319.94 95.843L319.533 95.7364C314.766 100.228 309.114 103.652 302.947 105.785C297.175 107.499 291.049 107.588 285.23 106.044C274.656 103.527 266.81 98.2993 261.694 90.3619Z" fill="black"/>
<path d="M479.026 227.724L473.538 207.931L458.46 212.179C453.514 213.565 450.363 215.224 449.006 217.021C447.649 218.817 447.498 221.741 448.584 225.654L449.489 228.897L415.02 238.626L410.814 223.4C404.27 199.791 413.085 184.566 437.26 177.725L463.119 170.416L457.947 151.598L488.405 142.996L493.622 161.814L530.683 151.339L541.057 188.763L503.995 199.238L509.484 219.031L479.026 227.724Z" fill="black"/>
<path d="M404.949 412.133L417.84 396.176L405.778 386.219C401.797 382.931 398.676 381.271 396.4 381.195C394.123 381.119 391.725 382.717 389.177 385.762L387.066 388.366L359.338 365.528L369.199 353.348C384.548 334.347 401.948 332.86 421.399 348.887L442.206 366.015L454.435 350.881L478.936 371.07L466.708 386.204L496.547 410.778L472.151 440.878L442.327 416.319L429.435 432.276L404.949 412.133Z" fill="black"/>
<path d="M201.229 473.49C193.63 463.401 190.946 449.531 193.178 431.88L194.022 425.211L259.656 433.676C259.313 431.495 258.531 429.409 257.359 427.544C256.187 425.68 254.649 424.078 252.841 422.836C249.243 420.4 244.136 418.755 237.522 417.903C229.175 417.055 220.744 417.836 212.689 420.202L206.145 390.771C218.006 387.637 230.357 386.856 242.513 388.472C260.817 390.827 274.463 397.07 283.449 407.199C292.436 417.329 295.899 430.591 293.838 446.983C291.757 463.518 285.41 475.581 274.795 483.173C264.18 490.766 251.112 493.567 235.592 491.578C220.293 489.599 208.839 483.569 201.229 473.49ZM251.68 464.355C254.967 462.102 257.078 458.493 257.983 453.515L227.631 449.602C226.998 454.606 227.927 458.61 230.42 461.614C232.981 464.656 236.617 466.568 240.553 466.943C244.445 467.544 248.418 466.642 251.68 464.416V464.355Z" fill="black"/>
<path d="M32.1006 317.553L64.9554 302.191L65.9053 304.292C69.9261 313.062 74.6807 318.594 80.1691 320.888C85.6575 323.181 93.121 322.121 102.56 317.705L134.48 302.785L150.658 338.046L63.4174 378.85L47.7665 344.73L64.0055 337.118L63.8396 336.737C55.6774 337.305 49.1437 335.961 44.2383 332.702C38.9393 329.025 34.7909 323.896 32.2815 317.919L32.1006 317.553Z" fill="black"/>
</svg>
