<svg width="1060" height="1060" viewBox="0 0 1060 1060" fill="none" xmlns="http://www.w3.org/2000/svg">
<path d="M33.7553 484.522C39.7698 472.619 49.0435 462.71 60.4734 455.975C72.0231 449.093 85.6385 445.789 101.32 446.063C117.001 446.337 130.5 450.103 141.819 457.36C153.009 464.486 161.937 474.706 167.542 486.806C173.493 499.778 176.354 513.976 175.895 528.264C175.533 549.001 169.884 567.048 158.947 582.405L125.399 560.816C128.894 556.035 131.777 550.827 133.978 545.317C135.933 540.052 136.954 534.481 136.994 528.858C137.196 521.868 135.857 514.921 133.074 508.517C130.428 502.495 126.1 497.384 120.619 493.81C114.64 490.012 107.704 488.035 100.641 488.115C93.5803 487.803 86.5789 489.541 80.4668 493.124C74.8725 496.515 70.3773 501.478 67.53 507.406C64.5282 513.706 62.957 520.603 62.9311 527.594C62.7672 533.212 63.5891 538.815 65.3587 544.144C67.3744 549.728 70.0796 555.033 73.4103 559.933L39.1382 580.365C28.7143 564.643 23.6883 546.413 24.0602 525.676C24.0676 511.382 27.3878 497.288 33.7553 484.522Z" fill="black"/>
<path d="M122.28 811.089C120.308 802.232 120.894 792.99 123.968 784.46C127.317 775.526 133.06 767.709 140.554 761.881C147.778 755.718 156.551 751.697 165.9 750.264C174.808 749.03 183.879 750.393 192.045 754.192C201.054 758.437 208.931 764.789 215.024 772.721C221.429 780.396 225.926 789.505 228.142 799.289C230.106 808.146 229.52 817.386 226.453 825.918C223.099 834.848 217.357 842.664 209.867 848.497C202.653 854.685 193.878 858.728 184.521 860.175C175.614 861.409 166.542 860.046 158.376 856.247C149.364 852.008 141.481 845.661 135.382 837.733C128.976 830.032 124.483 820.897 122.28 811.089ZM173.545 823.908C175.928 824.262 178.359 824.087 180.669 823.395C182.979 822.703 185.111 821.512 186.919 819.904C188.86 818.46 190.466 816.605 191.625 814.47C192.783 812.335 193.467 809.97 193.628 807.541C193.824 802.577 192.136 797.725 188.909 793.975C185.956 789.998 181.608 787.312 176.756 786.469C174.372 786.109 171.937 786.282 169.626 786.976C167.315 787.671 165.183 788.87 163.382 790.489C161.443 791.932 159.838 793.784 158.679 795.916C157.521 798.048 156.836 800.41 156.672 802.837C156.47 807.806 158.159 812.665 161.392 816.417C164.357 820.407 168.731 823.09 173.605 823.908H173.545Z" fill="black"/>
<path d="M380.715 1008.54L392.31 912.184L429.281 916.752L427.456 931.977H427.864C431.394 926.571 436.423 922.334 442.323 919.797C448.327 917.367 454.854 916.559 461.261 917.452C469.655 918.467 476.188 921.208 480.863 925.674C485.522 930.057 488.813 935.719 490.332 941.965H490.739C494.525 936.009 499.847 931.209 506.133 928.079C512.598 925.251 519.721 924.323 526.684 925.4C537.842 926.77 545.994 931.048 551.141 938.234C556.287 945.421 558.132 955.063 556.674 967.162L549.136 1029.1L511.064 1024.46L516.959 975.445C518.377 963.63 514.888 957.205 506.495 956.17C496.302 954.931 490.437 960.707 488.899 973.496L483.169 1021.04L446.817 1016.61L452.712 967.604C454.129 955.789 450.641 949.364 442.248 948.329C432.055 947.09 426.19 952.866 424.652 965.655L418.922 1013.22L380.715 1008.54Z" fill="black"/>
<path d="M798.751 948.314L733.795 876.755L761.237 851.344L771.505 862.656L771.806 862.367C770.032 856.142 770.116 849.527 772.048 843.351C774.119 837.164 777.758 831.631 782.602 827.303C788.844 821.538 795.167 818.295 801.57 817.574C807.902 816.858 814.304 818.017 819.996 820.909L820.297 820.635C818.28 813.856 818.129 806.65 819.86 799.791C821.94 792.994 825.881 786.93 831.229 782.298C839.511 774.624 848.056 771.158 856.861 771.899C865.667 772.64 874.12 777.496 882.222 786.469L923.973 832.465L895.596 858.728L862.561 822.34C854.599 813.55 847.498 812.027 841.255 817.772C833.686 824.776 834.214 833.028 842.839 842.529L874.894 877.836L847.905 902.821L814.854 866.432C806.893 857.642 799.791 856.12 793.549 861.865C785.98 868.868 786.507 877.12 795.132 886.621L827.188 921.928L798.751 948.314Z" fill="black"/>
<path d="M1010.9 593.489C1003.78 599.915 994.195 602.746 982.143 601.985L920.429 598.087L924.379 558.365L974.679 561.532C980.077 561.882 984.224 560.953 987.088 558.745C988.5 557.662 989.666 556.286 990.508 554.711C991.351 553.135 991.85 551.396 991.974 549.61C992.918 539.998 986.385 534.75 972.372 533.867L927.063 531.005L930.908 492.333L1026.92 498.423L1023.2 535.847L1008.44 534.918V535.329C1013.48 539.294 1017.6 544.331 1020.5 550.082C1022.97 555.563 1023.89 561.631 1023.14 567.607C1022.14 578.437 1018.06 587.064 1010.9 593.489Z" fill="black"/>
<path d="M826.615 238.497C828.122 229.362 833.998 220.973 844.241 213.33L892.641 176.957L915.635 208.123L875.754 238.101C871.18 241.532 868.446 244.983 867.551 248.455C866.662 251.926 867.551 255.504 870.311 259.219C876.452 267.532 884.861 267.674 895.536 259.645L932.929 231.539L955.923 262.706L878.814 320.668L856.559 290.507L868.079 281.844L867.823 281.509C861.235 281.674 854.693 280.375 848.659 277.702C842.821 274.87 837.79 270.59 834.033 265.263C827.57 256.514 825.097 247.592 826.615 238.497Z" fill="black"/>
<path d="M626.078 175.754C624.789 173.197 624.041 170.398 623.88 167.533C623.719 164.668 624.149 161.801 625.144 159.113C626.012 156.399 627.422 153.894 629.287 151.752C631.152 149.61 633.431 147.877 635.985 146.659C638.507 145.37 641.265 144.618 644.087 144.451C646.909 144.283 649.735 144.703 652.39 145.684C655.1 146.547 657.604 147.967 659.742 149.857C661.881 151.746 663.608 154.064 664.814 156.662C666.055 159.214 666.772 161.993 666.922 164.831C667.073 167.67 666.653 170.51 665.688 173.181C664.834 175.91 663.437 178.434 661.583 180.599C659.73 182.764 657.458 184.524 654.907 185.772C652.364 187.036 649.592 187.761 646.76 187.905C643.929 188.049 641.099 187.608 638.442 186.61C635.762 185.739 633.284 184.328 631.159 182.462C629.033 180.596 627.305 178.314 626.078 175.754ZM673.86 142.685L637.462 130.063L668.734 38.2703L705.132 50.9072L673.86 142.685Z" fill="black"/>
<path d="M394.932 100.693L414.866 96.3389L411.548 80.931C410.463 75.8762 409.061 72.5875 407.311 71.1107C405.562 69.6338 402.788 69.3141 398.807 70.1819L395.551 70.8823L388.012 35.575L403.271 32.2406C426.993 27.0438 441.518 36.8387 446.846 61.6254L452.53 88.1172L471.438 83.9913L478.148 115.203L459.24 119.329L467.397 157.392L429.702 165.614L421.53 127.551L401.612 131.905L394.932 100.693Z" fill="black"/>
<path d="M186.918 222.815L207.032 271.034L182.214 299.642L122.188 157.758L147.549 128.525L169.94 182.118L263.529 205.931L235.288 238.482L186.918 222.815Z" fill="black"/>
</svg>
