<svg width="88" height="19" viewBox="0 0 88 19" fill="none" xmlns="http://www.w3.org/2000/svg">
<g clip-path="url(#clip0_2901_31354)">
<path d="M17.1735 1.03244L13.9633 0.156931C12.7735 -0.157355 11.4714 -0.000212357 10.349 0.516114L3.00816 4.04061C1.1898 4.87122 0 6.77938 0 8.79979V11.0671C0 12.9753 1.03265 14.7488 2.69388 15.6692L6.21837 17.6447C7.04898 18.1161 7.92449 18.3182 8.8 18.3182C9.78776 18.3182 10.7755 18.0488 11.651 17.4875L18.6776 12.9304C20.2041 11.9426 21.102 10.2814 21.102 8.4855V6.15081C21.102 3.72632 19.4857 1.61611 17.1735 1.03244Z" fill="#0A0B1E"/>
<path d="M4.13128 6.42003C3.21087 6.82411 2.6272 7.76697 2.6272 8.79962V11.067C2.6272 11.9874 3.14352 12.9302 3.97414 13.4017L7.49863 15.3772C8.32924 15.8486 9.40679 15.8486 10.1925 15.2649L17.219 10.7751C18.0047 10.3037 18.4537 9.42819 18.4537 8.55268V6.21799C18.4537 5.02819 17.6231 3.99554 16.4782 3.68125L13.268 2.85064C12.6394 2.6935 12.0333 2.7384 11.4496 3.00778L4.13128 6.42003Z" fill="#FFFD63"/>
<path d="M83.6666 8.26132C83.3747 8.19397 83.487 7.78989 83.6666 7.49806C83.8462 7.13887 83.9584 6.77969 83.9584 6.37561V6.26336C83.9584 6.01642 83.7788 5.85928 83.5543 5.85928H80.9502C80.7033 5.85928 80.5461 6.03887 80.5461 6.26336V16.4552C80.5461 16.7021 80.7257 16.8593 80.9502 16.8593H83.6217C83.8686 16.8593 84.0257 16.6797 84.0257 16.4552V12.7062C84.0257 9.98989 84.8564 8.84499 87.5727 8.91234C87.8196 8.91234 87.9768 8.73275 87.9768 8.50826V6.08377C87.9768 5.83683 87.7972 5.67969 87.5727 5.67969C85.1931 5.74703 84.6094 6.5103 83.9584 7.92459C83.9584 8.08173 83.8462 8.26132 83.6666 8.26132Z" fill="#0A0B1E"/>
<path d="M79.6938 10.8654C79.6938 7.00418 76.9101 5.23071 74.0591 5.23071C70.3326 5.23071 68.1326 7.72255 68.1326 11.1572C68.1326 14.4797 70.1979 17.0838 74.1264 17.0838C77.0224 17.0838 78.7509 15.4226 79.3346 13.4695C79.402 13.2226 79.2224 12.9981 78.9754 12.9981H76.3713C76.1918 12.9981 76.0346 13.0879 75.9673 13.245C75.5407 13.9185 75.0244 14.3674 74.0815 14.3674C72.8469 14.3674 71.8815 13.6042 71.5897 12.4144C71.5224 12.1674 71.702 11.943 71.9489 11.943H79.2897C79.4693 11.943 79.6264 11.9205 79.6713 11.5838C79.6713 11.494 79.6938 11.1123 79.6938 10.8654ZM74.1264 7.90214C75.2489 7.90214 76.0346 8.48582 76.3264 9.63071C76.3938 9.87765 76.2142 10.0348 75.9673 10.0348H72.106C71.8591 10.0348 71.702 9.78786 71.7469 9.56337C72.0611 8.57561 72.7122 7.90214 74.1264 7.90214Z" fill="#0A0B1E"/>
<path d="M67.3681 8.62054C67.6151 8.62054 67.7722 8.44095 67.7722 8.21646V6.2634C67.7722 6.01646 67.5926 5.85931 67.3681 5.85931H65.4824C65.2355 5.85931 65.1906 5.67972 65.1906 5.45523V2.94095C65.1906 2.69401 65.011 2.53687 64.7865 2.53687H62.1151C61.8681 2.53687 61.711 2.71646 61.711 2.94095V5.43278C61.711 5.67972 61.5314 5.83687 61.3069 5.83687H60.364C60.1171 5.83687 59.96 6.01646 59.96 6.24095V8.19401C59.96 8.44095 60.1395 8.59809 60.364 8.59809H61.3069C61.5538 8.59809 61.711 8.77768 61.711 9.00217V13.4471C61.711 16.1634 62.7885 16.8818 65.0334 16.8818H67.5702C67.8171 16.8818 67.9742 16.7022 67.9742 16.4777V14.5246C67.9742 14.2777 67.7947 14.1205 67.5702 14.1205H66.111C65.1681 14.1205 65.1681 14.0532 65.1681 12.9981V9.04707C65.1681 8.80013 65.2804 8.64299 65.46 8.64299H67.3681V8.62054Z" fill="#0A0B1E"/>
<path d="M58.6584 8.62054C58.9054 8.62054 59.0625 8.44095 59.0625 8.21646V6.2634C59.0625 6.01646 58.8829 5.85931 58.6584 5.85931H56.7727C56.5258 5.85931 56.4809 5.67972 56.4809 5.45523V2.94095C56.4809 2.69401 56.3013 2.53687 56.0768 2.53687H53.4053C53.1584 2.53687 53.0013 2.71646 53.0013 2.94095V5.43278C53.0013 5.67972 52.8217 5.83687 52.5972 5.83687H51.6543C51.4074 5.83687 51.2502 6.01646 51.2502 6.24095V8.19401C51.2502 8.44095 51.4298 8.59809 51.6543 8.59809H52.5972C52.8441 8.59809 53.0013 8.77768 53.0013 9.00217V13.4471C53.0013 16.1634 54.0788 16.8818 56.3237 16.8818H58.8156C59.0625 16.8818 59.2196 16.7022 59.2196 16.4777V14.5246C59.2196 14.2777 59.04 14.1205 58.8156 14.1205H57.3564C56.4135 14.1205 56.4135 14.0532 56.4135 12.9981V9.04707C56.4135 8.80013 56.5258 8.64299 56.7054 8.64299H58.6584V8.62054Z" fill="#0A0B1E"/>
<path d="M43.0787 17.1512C45.0317 17.1512 46.2215 15.6022 46.8052 14.5471C46.8725 14.3675 46.9848 14.143 47.2766 14.2553C47.5685 14.3675 47.344 14.7941 47.1644 15.1533C46.9848 15.5124 46.8725 15.8716 46.8725 16.343V16.4553C46.8725 16.7022 47.0521 16.8594 47.2766 16.8594H49.8807C50.1276 16.8594 50.3521 16.6798 50.3521 16.4553V6.26346C50.3521 6.01652 50.1052 5.85938 49.8807 5.85938H47.2766C47.0297 5.85938 46.8725 6.03897 46.8725 6.26346V9.94509C46.8725 12.5492 45.6378 14.2777 44.2685 14.2777C43.0787 14.2777 42.5399 13.5594 42.5399 11.0675V6.26346C42.5399 6.01652 42.2929 5.85938 42.0685 5.85938H39.4644C39.2174 5.85938 39.0603 6.03897 39.0603 6.26346V12.4369C39.0378 15.5573 40.6317 17.1512 43.0787 17.1512Z" fill="#0A0B1E"/>
<path d="M29.857 1.93069C29.857 1.68375 29.6774 1.52661 29.453 1.52661H26.7815C26.5346 1.52661 26.3774 1.7062 26.3774 1.93069V16.4552C26.3774 16.7021 26.557 16.8593 26.7815 16.8593H29.3856C29.6325 16.8593 29.857 16.6797 29.857 16.4552C29.857 16.1633 29.6774 15.8715 29.4978 15.5572C29.3183 15.198 29.1387 14.8389 29.4305 14.7266C29.6774 14.6593 29.7223 14.9062 29.7897 15.0184C30.5081 16.3878 31.6305 17.2184 33.3366 17.2184C36.4121 17.2184 38.208 14.6144 38.208 11.2919C38.208 7.96947 36.4346 5.36539 33.3366 5.36539C31.6081 5.36539 30.4856 6.26335 29.7897 7.56539C29.7223 7.74498 29.5427 8.03682 29.3183 7.85722C29.0264 7.74498 29.3183 7.31845 29.4978 6.95926C29.6774 6.66743 29.857 6.37559 29.857 6.01641V1.93069V1.93069ZM32.4162 14.2552C30.8223 14.2552 29.8121 12.8409 29.8121 11.1797C29.8121 9.51845 30.7999 8.08171 32.4162 8.08171C34.1448 8.08171 34.9081 9.496 34.9081 11.1572C34.9081 12.8184 34.1223 14.2552 32.4162 14.2552Z" fill="#0A0B1E"/>
</g>
<defs>
<clipPath id="clip0_2901_31354">
<rect width="88" height="18.2959" fill="white"/>
</clipPath>
</defs>
</svg>
