<svg width="211" height="112" viewBox="0 0 211 112" fill="none" xmlns="http://www.w3.org/2000/svg">
<rect width="210" height="112" transform="translate(0.759766)" fill="white"/>
<g clip-path="url(#clip0_456_125272)">
<path d="M117.837 47.5224L126.246 44.3991L117.837 41.1866V36.814L132.24 42.6144V46.1838L117.837 51.9842V47.5224Z" fill="#A100FF"/>
<path d="M38.3063 75.1863C35.2647 75.1863 32.7598 73.6692 32.7598 70.2782V70.0998C32.7598 65.9949 36.3382 64.5671 40.7218 64.5671H42.7794V63.764C42.7794 62.0685 42.0637 61.0869 40.2745 61.0869C38.6642 61.0869 37.859 61.9792 37.7696 63.2285H33.2965C33.6544 59.4806 36.6066 57.6959 40.5429 57.6959C44.5686 57.6959 47.5208 59.3914 47.5208 63.5855V74.8293H42.9583V72.8661C42.0637 74.1154 40.5429 75.1863 38.3063 75.1863ZM42.7794 69.2966V67.6904H40.9007C38.5747 67.6904 37.4117 68.315 37.4117 69.832V70.0105C37.4117 71.1706 38.1274 71.9737 39.7377 71.9737C41.348 71.8845 42.7794 70.9921 42.7794 69.2966ZM58.1666 75.1863C53.5147 75.1863 50.1152 72.3307 50.1152 66.6195V66.3518C50.1152 60.6407 53.6936 57.6066 58.1666 57.6066C62.0134 57.6066 65.1446 59.5698 65.5024 63.9424H61.0294C60.761 62.3362 59.8664 61.2653 58.2561 61.2653C56.288 61.2653 54.8566 62.8716 54.8566 66.1733V66.7088C54.8566 70.0998 56.109 71.6168 58.2561 71.6168C59.8664 71.6168 61.0294 70.4567 61.2978 68.5827H65.5919C65.3235 72.5091 62.7291 75.1863 58.1666 75.1863ZM75.7009 75.1863C71.049 75.1863 67.6495 72.3307 67.6495 66.6195V66.3518C67.6495 60.6407 71.2279 57.6066 75.7009 57.6066C79.5478 57.6066 82.6789 59.5698 83.0367 63.9424H78.5637C78.2953 62.3362 77.4007 61.2653 75.7904 61.2653C73.8223 61.2653 72.3909 62.8716 72.3909 66.1733V66.7088C72.3909 70.0998 73.6433 71.6168 75.7904 71.6168C77.4007 71.6168 78.5637 70.4567 78.8321 68.5827H83.1262C82.8578 72.5091 80.2634 75.1863 75.7009 75.1863ZM93.3247 75.1863C88.4938 75.1863 85.1838 72.3307 85.1838 66.7088V66.3518C85.1838 60.7299 88.6728 57.6066 93.2353 57.6066C97.4399 57.6066 100.929 59.9268 100.929 65.5487V67.6011H89.9252C90.1041 70.6352 91.446 71.7953 93.4142 71.7953C95.2034 71.7953 96.1875 70.8137 96.5453 69.6536H100.929C100.392 72.7769 97.7083 75.1863 93.3247 75.1863ZM90.0147 64.4778H96.2769C96.1875 61.9792 95.0245 60.9084 93.1458 60.9084C91.7144 60.9976 90.3725 61.8007 90.0147 64.4778ZM103.792 58.0528H108.533V60.5514C109.338 58.9452 111.038 57.6959 113.632 57.6959C116.674 57.6959 118.732 59.5698 118.732 63.5855V74.8293H113.99V64.2994C113.99 62.3362 113.185 61.4438 111.485 61.4438C109.875 61.4438 108.533 62.4254 108.533 64.5671V74.8293H103.792V58.0528ZM127.409 52.9663V58.0528H130.63V61.533H127.409V69.4751C127.409 70.7244 127.946 71.3491 129.109 71.3491C129.825 71.3491 130.272 71.2598 130.719 71.0814V74.7401C130.183 74.9185 129.198 75.097 128.036 75.097C124.368 75.097 122.668 73.4015 122.668 70.0105V61.533H120.7V58.0528H122.668V54.9295L127.409 52.9663ZM148.343 74.8293H143.691V72.3307C142.886 73.9369 141.276 75.1863 138.771 75.1863C135.729 75.1863 133.493 73.3123 133.493 69.3859V58.0528H138.234V68.7612C138.234 70.7244 139.039 71.6168 140.649 71.6168C142.26 71.6168 143.602 70.5459 143.602 68.4935V58.0528H148.343V74.8293ZM151.832 58.0528H156.573V61.1761C157.558 58.9452 159.168 57.8743 161.673 57.8743V62.5146C158.452 62.5146 156.573 63.4962 156.573 66.2626V74.9185H151.832V58.0528ZM171.245 75.1863C166.414 75.1863 163.104 72.3307 163.104 66.7088V66.3518C163.104 60.7299 166.593 57.6066 171.156 57.6066C175.36 57.6066 178.849 59.9268 178.849 65.5487V67.6011H167.935C168.114 70.6352 169.456 71.7953 171.424 71.7953C173.213 71.7953 174.197 70.8137 174.555 69.6536H178.939C178.223 72.7769 175.629 75.1863 171.245 75.1863ZM167.846 64.4778H174.197C174.108 61.9792 172.945 60.9084 171.066 60.9084C169.635 60.9976 168.293 61.8007 167.846 64.4778Z" fill="#0A0B1E"/>
</g>
<defs>
<clipPath id="clip0_456_125272">
<rect width="146" height="38.3718" fill="white" transform="translate(32.7598 36.814)"/>
</clipPath>
</defs>
</svg>
