<svg width="40" height="40" viewBox="0 0 40 40" fill="none" xmlns="http://www.w3.org/2000/svg">
<path d="M3.76211 8.87405C3.56845 10.5374 3.38427 12.6909 3.28047 15.3636C3.24683 16.23 3.94485 16.9447 4.81186 16.9447H15.4008C16.2529 16.9447 16.9438 16.2539 16.9438 15.4018V4.81284C16.9438 3.94583 16.229 3.2478 15.3626 3.28145C12.6899 3.38525 10.5364 3.56943 8.87307 3.76309C6.1371 4.08164 4.08066 6.13807 3.76211 8.87405Z" stroke="#0A0B1E" stroke-width="2"/>
<path d="M3.76211 31.1264C3.56845 29.4631 3.38427 27.3096 3.28047 24.6369C3.24683 23.7705 3.94485 23.0558 4.81187 23.0558H15.4008C16.2529 23.0558 16.9438 23.7466 16.9438 24.5987V35.1876C16.9438 36.0547 16.229 36.7527 15.3626 36.719C12.6899 36.6152 10.5364 36.4311 8.87307 36.2374C6.1371 35.9188 4.08066 33.8624 3.76211 31.1264Z" stroke="#0A0B1E" stroke-width="2"/>
<path d="M36.2359 8.87405C36.4296 10.5374 36.6138 12.6909 36.7176 15.3636C36.7512 16.23 36.0532 16.9447 35.1862 16.9447H24.5972C23.7451 16.9447 23.0543 16.2539 23.0543 15.4018V4.81284C23.0543 3.94583 23.769 3.2478 24.6354 3.28145C27.3081 3.38525 29.4616 3.56943 31.125 3.76309C33.861 4.08164 35.9174 6.13807 36.2359 8.87405Z" stroke="#0A0B1E" stroke-width="2"/>
<path d="M36.2359 31.1264C36.4296 29.4631 36.6138 27.3096 36.7176 24.6369C36.7512 23.7705 36.0532 23.0558 35.1862 23.0558H24.5972C23.7451 23.0558 23.0543 23.7466 23.0543 24.5987V35.1876C23.0543 36.0547 23.769 36.7527 24.6354 36.719C27.3081 36.6152 29.4616 36.4311 31.125 36.2374C33.861 35.9188 35.9174 33.8624 36.2359 31.1264Z" stroke="#0A0B1E" stroke-width="2"/>
</svg>
