<svg width="184" height="112" viewBox="0 0 184 112" fill="none" xmlns="http://www.w3.org/2000/svg">
<rect width="182.491" height="112" transform="translate(0.743164)" fill="white"/>
<g clip-path="url(#clip0_456_125244)">
<path d="M150.412 62.9812C150.301 62.9859 150.194 63.0261 150.107 63.0959C150.021 63.1657 149.959 63.2615 149.931 63.3691C148.716 66.8336 147.075 68.8976 145.725 68.8976C144.949 68.8976 144.635 68.0324 144.635 66.6746C144.635 63.2799 146.668 56.0832 147.692 52.8011C147.805 52.46 147.871 52.1049 147.886 51.7458C147.886 50.7914 147.366 50.322 146.074 50.322C144.682 50.322 143.184 50.8652 141.725 53.4257C141.221 51.1755 139.7 50.1901 137.57 50.1901C135.111 50.1901 132.736 51.773 130.781 54.3374C128.826 56.9018 126.513 57.7437 124.799 57.3286C126.044 54.2831 126.506 52.0096 126.506 50.3181C126.506 47.6684 125.198 46.07 123.08 46.07C119.864 46.07 118.009 49.1387 118.009 52.3666C118.009 54.8612 119.142 57.4101 121.629 58.6709C119.542 63.3885 116.5 67.6522 115.344 67.6522C113.85 67.6522 113.404 60.3469 113.497 55.1211C113.552 52.1221 113.8 51.9708 113.8 51.063C113.8 50.5431 113.462 50.1862 112.104 50.1862C108.943 50.1862 107.965 52.8632 107.814 55.9397C107.766 57.1077 107.584 58.2664 107.27 59.3925C105.948 64.1101 103.224 67.6871 101.451 67.6871C100.629 67.6871 100.404 66.8647 100.404 65.7861C100.404 62.3915 102.305 58.1511 102.305 54.5353C102.305 51.8739 101.141 50.194 98.9409 50.194C96.3532 50.194 92.9275 53.2744 89.6881 59.0472C90.7549 54.6284 91.1933 50.3492 88.0353 50.3492C87.351 50.359 86.679 50.5333 86.0761 50.8574C85.8734 50.9521 85.7039 51.1056 85.5898 51.298C85.4756 51.4903 85.422 51.7127 85.436 51.9359C85.7386 56.6419 81.6456 68.692 77.7621 68.692C77.056 68.692 76.7146 67.916 76.7146 66.694C76.7146 63.2916 78.7398 56.1143 79.7601 52.8244C79.8812 52.465 79.9491 52.0899 79.9619 51.7109C79.9619 50.8108 79.4032 50.3492 78.1423 50.3492C76.7573 50.3492 75.252 50.8768 73.801 53.4296C73.2928 51.1794 71.7681 50.194 69.6421 50.194C66.1505 50.194 62.2709 53.8835 60.5405 58.6942C58.2477 65.115 53.6271 71.3185 47.4042 71.3185C41.7593 71.3185 38.7798 66.6203 38.7798 59.1986C38.7798 48.4792 46.6477 39.7229 52.4826 39.7229C55.272 39.7229 56.6066 41.4998 56.6066 44.2271C56.6066 47.5287 54.7638 49.0611 54.7638 50.3181C54.7638 50.7061 55.0819 51.094 55.7182 51.094C58.2555 51.094 61.2389 48.1145 61.2389 44.0487C61.2389 39.9829 57.9296 36.9878 52.0908 36.9878C42.446 36.9878 32.7393 46.6868 32.7393 59.1287C32.7393 69.0217 37.6198 74.9886 46.0618 74.9886C51.8192 74.9886 56.851 70.5115 59.5629 65.2896C59.8694 69.6192 61.8363 71.8849 64.8353 71.8849C67.5006 71.8849 69.6576 70.2981 71.3065 67.5048C71.9388 70.4261 73.6342 71.8538 75.8107 71.8538C78.3169 71.8538 80.4158 70.2671 82.406 67.3147C82.375 69.6425 82.9026 71.8112 84.9123 71.8112C85.8589 71.8112 86.9917 71.59 87.1935 70.7637C89.3079 62.019 94.5337 54.8806 96.1166 54.8806C96.5899 54.8806 96.7218 55.3383 96.7218 55.8776C96.7218 58.2519 95.0458 63.1247 95.0458 66.2323C95.0458 69.592 96.4735 71.8151 99.4259 71.8151C102.696 71.8151 106.021 67.8113 108.236 61.957C108.931 67.4272 110.428 71.8383 112.776 71.8383C115.654 71.8383 120.768 65.7784 123.867 59.3615C125.549 59.6091 127.263 59.2068 128.659 58.2364C127.892 60.1533 127.49 62.1968 127.475 64.2614C127.475 70.2166 130.319 71.8849 132.767 71.8849C135.429 71.8849 137.586 70.2981 139.238 67.5048C139.782 70.0227 141.178 71.8461 143.735 71.8461C147.739 71.8461 151.219 67.7531 151.219 64.3934C151.234 63.5088 150.854 62.9812 150.412 62.9812ZM67.2833 68.5872C65.6655 68.5872 65.0331 66.9578 65.0331 64.5291C65.0331 60.312 67.9196 53.2783 70.9689 53.2783C72.3035 53.2783 72.804 54.8301 72.804 56.7699C72.804 61.0414 70.0611 68.5872 67.2833 68.5872ZM122.684 55.9979C121.786 54.8221 121.321 53.3721 121.369 51.8933C121.369 50.1746 121.997 48.7236 122.75 48.7236C123.503 48.7236 123.736 49.4646 123.736 50.4966C123.732 52.2191 123.115 54.737 122.684 55.9979ZM135.227 68.5872C133.609 68.5872 132.977 66.7134 132.977 64.5291C132.977 60.4594 135.863 53.2783 138.936 53.2783C140.27 53.2783 140.744 54.8301 140.744 56.7699C140.744 61.0414 138.047 68.5872 135.227 68.5872Z" fill="url(#paint0_linear_456_125244)"/>
<path d="M150.412 62.9812C150.301 62.9859 150.194 63.0261 150.107 63.0959C150.021 63.1657 149.959 63.2615 149.931 63.3691C148.716 66.8336 147.075 68.8976 145.725 68.8976C144.949 68.8976 144.635 68.0324 144.635 66.6746C144.635 63.2799 146.668 56.0832 147.692 52.8011C147.805 52.46 147.871 52.1049 147.886 51.7458C147.886 50.7914 147.366 50.322 146.074 50.322C144.682 50.322 143.184 50.8652 141.725 53.4257C141.221 51.1755 139.7 50.1901 137.57 50.1901C135.111 50.1901 132.736 51.773 130.781 54.3374C128.826 56.9018 126.513 57.7437 124.799 57.3286C126.044 54.2831 126.506 52.0096 126.506 50.3181C126.506 47.6684 125.198 46.07 123.08 46.07C119.864 46.07 118.009 49.1387 118.009 52.3666C118.009 54.8612 119.142 57.4101 121.629 58.6709C119.542 63.3885 116.5 67.6522 115.344 67.6522C113.85 67.6522 113.404 60.3469 113.497 55.1211C113.552 52.1221 113.8 51.9708 113.8 51.063C113.8 50.5431 113.462 50.1862 112.104 50.1862C108.943 50.1862 107.965 52.8632 107.814 55.9397C107.766 57.1077 107.584 58.2664 107.27 59.3925C105.948 64.1101 103.224 67.6871 101.451 67.6871C100.629 67.6871 100.404 66.8647 100.404 65.7861C100.404 62.3915 102.305 58.1511 102.305 54.5353C102.305 51.8739 101.141 50.194 98.9409 50.194C96.3532 50.194 92.9275 53.2744 89.6881 59.0472C90.7549 54.6284 91.1933 50.3492 88.0353 50.3492C87.351 50.359 86.679 50.5333 86.0761 50.8574C85.8734 50.9521 85.7039 51.1056 85.5898 51.298C85.4756 51.4903 85.422 51.7127 85.436 51.9359C85.7386 56.6419 81.6456 68.692 77.7621 68.692C77.056 68.692 76.7146 67.916 76.7146 66.694C76.7146 63.2916 78.7398 56.1143 79.7601 52.8244C79.8812 52.465 79.9491 52.0899 79.9619 51.7109C79.9619 50.8108 79.4032 50.3492 78.1423 50.3492C76.7573 50.3492 75.252 50.8768 73.801 53.4296C73.2928 51.1794 71.7681 50.194 69.6421 50.194C66.1505 50.194 62.2709 53.8835 60.5405 58.6942C58.2477 65.115 53.6271 71.3185 47.4042 71.3185C41.7593 71.3185 38.7798 66.6203 38.7798 59.1986C38.7798 48.4792 46.6477 39.7229 52.4826 39.7229C55.272 39.7229 56.6066 41.4998 56.6066 44.2271C56.6066 47.5287 54.7638 49.0611 54.7638 50.3181C54.7638 50.7061 55.0819 51.094 55.7182 51.094C58.2555 51.094 61.2389 48.1145 61.2389 44.0487C61.2389 39.9829 57.9296 36.9878 52.0908 36.9878C42.446 36.9878 32.7393 46.6868 32.7393 59.1287C32.7393 69.0217 37.6198 74.9886 46.0618 74.9886C51.8192 74.9886 56.851 70.5115 59.5629 65.2896C59.8694 69.6192 61.8363 71.8849 64.8353 71.8849C67.5006 71.8849 69.6576 70.2981 71.3065 67.5048C71.9388 70.4261 73.6342 71.8538 75.8107 71.8538C78.3169 71.8538 80.4158 70.2671 82.406 67.3147C82.375 69.6425 82.9026 71.8112 84.9123 71.8112C85.8589 71.8112 86.9917 71.59 87.1935 70.7637C89.3079 62.019 94.5337 54.8806 96.1166 54.8806C96.5899 54.8806 96.7218 55.3383 96.7218 55.8776C96.7218 58.2519 95.0458 63.1247 95.0458 66.2323C95.0458 69.592 96.4735 71.8151 99.4259 71.8151C102.696 71.8151 106.021 67.8113 108.236 61.957C108.931 67.4272 110.428 71.8383 112.776 71.8383C115.654 71.8383 120.768 65.7784 123.867 59.3615C125.549 59.6091 127.263 59.2068 128.659 58.2364C127.892 60.1533 127.49 62.1968 127.475 64.2614C127.475 70.2166 130.319 71.8849 132.767 71.8849C135.429 71.8849 137.586 70.2981 139.238 67.5048C139.782 70.0227 141.178 71.8461 143.735 71.8461C147.739 71.8461 151.219 67.7531 151.219 64.3934C151.234 63.5088 150.854 62.9812 150.412 62.9812ZM67.2833 68.5872C65.6655 68.5872 65.0331 66.9578 65.0331 64.5291C65.0331 60.312 67.9196 53.2783 70.9689 53.2783C72.3035 53.2783 72.804 54.8301 72.804 56.7699C72.804 61.0414 70.0611 68.5872 67.2833 68.5872ZM122.684 55.9979C121.786 54.8221 121.321 53.3721 121.369 51.8933C121.369 50.1746 121.997 48.7236 122.75 48.7236C123.503 48.7236 123.736 49.4646 123.736 50.4966C123.732 52.2191 123.115 54.737 122.684 55.9979ZM135.227 68.5872C133.609 68.5872 132.977 66.7134 132.977 64.5291C132.977 60.4594 135.863 53.2783 138.936 53.2783C140.27 53.2783 140.744 54.8301 140.744 56.7699C140.744 61.0414 138.047 68.5872 135.227 68.5872Z" fill="url(#paint1_radial_456_125244)"/>
<path d="M150.412 62.9812C150.301 62.9859 150.194 63.0261 150.107 63.0959C150.021 63.1657 149.959 63.2615 149.931 63.3691C148.716 66.8336 147.075 68.8976 145.725 68.8976C144.949 68.8976 144.635 68.0324 144.635 66.6746C144.635 63.2799 146.668 56.0832 147.692 52.8011C147.805 52.46 147.871 52.1049 147.886 51.7458C147.886 50.7914 147.366 50.322 146.074 50.322C144.682 50.322 143.184 50.8652 141.725 53.4257C141.221 51.1755 139.7 50.1901 137.57 50.1901C135.111 50.1901 132.736 51.773 130.781 54.3374C128.826 56.9018 126.513 57.7437 124.799 57.3286C126.044 54.2831 126.506 52.0096 126.506 50.3181C126.506 47.6684 125.198 46.07 123.08 46.07C119.864 46.07 118.009 49.1387 118.009 52.3666C118.009 54.8612 119.142 57.4101 121.629 58.6709C119.542 63.3885 116.5 67.6522 115.344 67.6522C113.85 67.6522 113.404 60.3469 113.497 55.1211C113.552 52.1221 113.8 51.9708 113.8 51.063C113.8 50.5431 113.462 50.1862 112.104 50.1862C108.943 50.1862 107.965 52.8632 107.814 55.9397C107.766 57.1077 107.584 58.2664 107.27 59.3925C105.948 64.1101 103.224 67.6871 101.451 67.6871C100.629 67.6871 100.404 66.8647 100.404 65.7861C100.404 62.3915 102.305 58.1511 102.305 54.5353C102.305 51.8739 101.141 50.194 98.9409 50.194C96.3532 50.194 92.9275 53.2744 89.6881 59.0472C90.7549 54.6284 91.1933 50.3492 88.0353 50.3492C87.351 50.359 86.679 50.5333 86.0761 50.8574C85.8734 50.9521 85.7039 51.1056 85.5898 51.298C85.4756 51.4903 85.422 51.7127 85.436 51.9359C85.7386 56.6419 81.6456 68.692 77.7621 68.692C77.056 68.692 76.7146 67.916 76.7146 66.694C76.7146 63.2916 78.7398 56.1143 79.7601 52.8244C79.8812 52.465 79.9491 52.0899 79.9619 51.7109C79.9619 50.8108 79.4032 50.3492 78.1423 50.3492C76.7573 50.3492 75.252 50.8768 73.801 53.4296C73.2928 51.1794 71.7681 50.194 69.6421 50.194C66.1505 50.194 62.2709 53.8835 60.5405 58.6942C58.2477 65.115 53.6271 71.3185 47.4042 71.3185C41.7593 71.3185 38.7798 66.6203 38.7798 59.1986C38.7798 48.4792 46.6477 39.7229 52.4826 39.7229C55.272 39.7229 56.6066 41.4998 56.6066 44.2271C56.6066 47.5287 54.7638 49.0611 54.7638 50.3181C54.7638 50.7061 55.0819 51.094 55.7182 51.094C58.2555 51.094 61.2389 48.1145 61.2389 44.0487C61.2389 39.9829 57.9296 36.9878 52.0908 36.9878C42.446 36.9878 32.7393 46.6868 32.7393 59.1287C32.7393 69.0217 37.6198 74.9886 46.0618 74.9886C51.8192 74.9886 56.851 70.5115 59.5629 65.2896C59.8694 69.6192 61.8363 71.8849 64.8353 71.8849C67.5006 71.8849 69.6576 70.2981 71.3065 67.5048C71.9388 70.4261 73.6342 71.8538 75.8107 71.8538C78.3169 71.8538 80.4158 70.2671 82.406 67.3147C82.375 69.6425 82.9026 71.8112 84.9123 71.8112C85.8589 71.8112 86.9917 71.59 87.1935 70.7637C89.3079 62.019 94.5337 54.8806 96.1166 54.8806C96.5899 54.8806 96.7218 55.3383 96.7218 55.8776C96.7218 58.2519 95.0458 63.1247 95.0458 66.2323C95.0458 69.592 96.4735 71.8151 99.4259 71.8151C102.696 71.8151 106.021 67.8113 108.236 61.957C108.931 67.4272 110.428 71.8383 112.776 71.8383C115.654 71.8383 120.768 65.7784 123.867 59.3615C125.549 59.6091 127.263 59.2068 128.659 58.2364C127.892 60.1533 127.49 62.1968 127.475 64.2614C127.475 70.2166 130.319 71.8849 132.767 71.8849C135.429 71.8849 137.586 70.2981 139.238 67.5048C139.782 70.0227 141.178 71.8461 143.735 71.8461C147.739 71.8461 151.219 67.7531 151.219 64.3934C151.234 63.5088 150.854 62.9812 150.412 62.9812ZM67.2833 68.5872C65.6655 68.5872 65.0331 66.9578 65.0331 64.5291C65.0331 60.312 67.9196 53.2783 70.9689 53.2783C72.3035 53.2783 72.804 54.8301 72.804 56.7699C72.804 61.0414 70.0611 68.5872 67.2833 68.5872ZM122.684 55.9979C121.786 54.8221 121.321 53.3721 121.369 51.8933C121.369 50.1746 121.997 48.7236 122.75 48.7236C123.503 48.7236 123.736 49.4646 123.736 50.4966C123.732 52.2191 123.115 54.737 122.684 55.9979ZM135.227 68.5872C133.609 68.5872 132.977 66.7134 132.977 64.5291C132.977 60.4594 135.863 53.2783 138.936 53.2783C140.27 53.2783 140.744 54.8301 140.744 56.7699C140.744 61.0414 138.047 68.5872 135.227 68.5872Z" fill="url(#paint2_radial_456_125244)"/>
<path d="M150.412 62.9812C150.301 62.9859 150.194 63.0261 150.107 63.0959C150.021 63.1657 149.959 63.2615 149.931 63.3691C148.716 66.8336 147.075 68.8976 145.725 68.8976C144.949 68.8976 144.635 68.0324 144.635 66.6746C144.635 63.2799 146.668 56.0832 147.692 52.8011C147.805 52.46 147.871 52.1049 147.886 51.7458C147.886 50.7914 147.366 50.322 146.074 50.322C144.682 50.322 143.184 50.8652 141.725 53.4257C141.221 51.1755 139.7 50.1901 137.57 50.1901C135.111 50.1901 132.736 51.773 130.781 54.3374C128.826 56.9018 126.513 57.7437 124.799 57.3286C126.044 54.2831 126.506 52.0096 126.506 50.3181C126.506 47.6684 125.198 46.07 123.08 46.07C119.864 46.07 118.009 49.1387 118.009 52.3666C118.009 54.8612 119.142 57.4101 121.629 58.6709C119.542 63.3885 116.5 67.6522 115.344 67.6522C113.85 67.6522 113.404 60.3469 113.497 55.1211C113.552 52.1221 113.8 51.9708 113.8 51.063C113.8 50.5431 113.462 50.1862 112.104 50.1862C108.943 50.1862 107.965 52.8632 107.814 55.9397C107.766 57.1077 107.584 58.2664 107.27 59.3925C105.948 64.1101 103.224 67.6871 101.451 67.6871C100.629 67.6871 100.404 66.8647 100.404 65.7861C100.404 62.3915 102.305 58.1511 102.305 54.5353C102.305 51.8739 101.141 50.194 98.9409 50.194C96.3532 50.194 92.9275 53.2744 89.6881 59.0472C90.7549 54.6284 91.1933 50.3492 88.0353 50.3492C87.351 50.359 86.679 50.5333 86.0761 50.8574C85.8734 50.9521 85.7039 51.1056 85.5898 51.298C85.4756 51.4903 85.422 51.7127 85.436 51.9359C85.7386 56.6419 81.6456 68.692 77.7621 68.692C77.056 68.692 76.7146 67.916 76.7146 66.694C76.7146 63.2916 78.7398 56.1143 79.7601 52.8244C79.8812 52.465 79.9491 52.0899 79.9619 51.7109C79.9619 50.8108 79.4032 50.3492 78.1423 50.3492C76.7573 50.3492 75.252 50.8768 73.801 53.4296C73.2928 51.1794 71.7681 50.194 69.6421 50.194C66.1505 50.194 62.2709 53.8835 60.5405 58.6942C58.2477 65.115 53.6271 71.3185 47.4042 71.3185C41.7593 71.3185 38.7798 66.6203 38.7798 59.1986C38.7798 48.4792 46.6477 39.7229 52.4826 39.7229C55.272 39.7229 56.6066 41.4998 56.6066 44.2271C56.6066 47.5287 54.7638 49.0611 54.7638 50.3181C54.7638 50.7061 55.0819 51.094 55.7182 51.094C58.2555 51.094 61.2389 48.1145 61.2389 44.0487C61.2389 39.9829 57.9296 36.9878 52.0908 36.9878C42.446 36.9878 32.7393 46.6868 32.7393 59.1287C32.7393 69.0217 37.6198 74.9886 46.0618 74.9886C51.8192 74.9886 56.851 70.5115 59.5629 65.2896C59.8694 69.6192 61.8363 71.8849 64.8353 71.8849C67.5006 71.8849 69.6576 70.2981 71.3065 67.5048C71.9388 70.4261 73.6342 71.8538 75.8107 71.8538C78.3169 71.8538 80.4158 70.2671 82.406 67.3147C82.375 69.6425 82.9026 71.8112 84.9123 71.8112C85.8589 71.8112 86.9917 71.59 87.1935 70.7637C89.3079 62.019 94.5337 54.8806 96.1166 54.8806C96.5899 54.8806 96.7218 55.3383 96.7218 55.8776C96.7218 58.2519 95.0458 63.1247 95.0458 66.2323C95.0458 69.592 96.4735 71.8151 99.4259 71.8151C102.696 71.8151 106.021 67.8113 108.236 61.957C108.931 67.4272 110.428 71.8383 112.776 71.8383C115.654 71.8383 120.768 65.7784 123.867 59.3615C125.549 59.6091 127.263 59.2068 128.659 58.2364C127.892 60.1533 127.49 62.1968 127.475 64.2614C127.475 70.2166 130.319 71.8849 132.767 71.8849C135.429 71.8849 137.586 70.2981 139.238 67.5048C139.782 70.0227 141.178 71.8461 143.735 71.8461C147.739 71.8461 151.219 67.7531 151.219 64.3934C151.234 63.5088 150.854 62.9812 150.412 62.9812ZM67.2833 68.5872C65.6655 68.5872 65.0331 66.9578 65.0331 64.5291C65.0331 60.312 67.9196 53.2783 70.9689 53.2783C72.3035 53.2783 72.804 54.8301 72.804 56.7699C72.804 61.0414 70.0611 68.5872 67.2833 68.5872ZM122.684 55.9979C121.786 54.8221 121.321 53.3721 121.369 51.8933C121.369 50.1746 121.997 48.7236 122.75 48.7236C123.503 48.7236 123.736 49.4646 123.736 50.4966C123.732 52.2191 123.115 54.737 122.684 55.9979ZM135.227 68.5872C133.609 68.5872 132.977 66.7134 132.977 64.5291C132.977 60.4594 135.863 53.2783 138.936 53.2783C140.27 53.2783 140.744 54.8301 140.744 56.7699C140.744 61.0414 138.047 68.5872 135.227 68.5872Z" fill="url(#paint3_radial_456_125244)"/>
<path d="M150.412 62.9812C150.301 62.9859 150.194 63.0261 150.107 63.0959C150.021 63.1657 149.959 63.2615 149.931 63.3691C148.716 66.8336 147.075 68.8976 145.725 68.8976C144.949 68.8976 144.635 68.0324 144.635 66.6746C144.635 63.2799 146.668 56.0832 147.692 52.8011C147.805 52.46 147.871 52.1049 147.886 51.7458C147.886 50.7914 147.366 50.322 146.074 50.322C144.682 50.322 143.184 50.8652 141.725 53.4257C141.221 51.1755 139.7 50.1901 137.57 50.1901C135.111 50.1901 132.736 51.773 130.781 54.3374C128.826 56.9018 126.513 57.7437 124.799 57.3286C126.044 54.2831 126.506 52.0096 126.506 50.3181C126.506 47.6684 125.198 46.07 123.08 46.07C119.864 46.07 118.009 49.1387 118.009 52.3666C118.009 54.8612 119.142 57.4101 121.629 58.6709C119.542 63.3885 116.5 67.6522 115.344 67.6522C113.85 67.6522 113.404 60.3469 113.497 55.1211C113.552 52.1221 113.8 51.9708 113.8 51.063C113.8 50.5431 113.462 50.1862 112.104 50.1862C108.943 50.1862 107.965 52.8632 107.814 55.9397C107.766 57.1077 107.584 58.2664 107.27 59.3925C105.948 64.1101 103.224 67.6871 101.451 67.6871C100.629 67.6871 100.404 66.8647 100.404 65.7861C100.404 62.3915 102.305 58.1511 102.305 54.5353C102.305 51.8739 101.141 50.194 98.9409 50.194C96.3532 50.194 92.9275 53.2744 89.6881 59.0472C90.7549 54.6284 91.1933 50.3492 88.0353 50.3492C87.351 50.359 86.679 50.5333 86.0761 50.8574C85.8734 50.9521 85.7039 51.1056 85.5898 51.298C85.4756 51.4903 85.422 51.7127 85.436 51.9359C85.7386 56.6419 81.6456 68.692 77.7621 68.692C77.056 68.692 76.7146 67.916 76.7146 66.694C76.7146 63.2916 78.7398 56.1143 79.7601 52.8244C79.8812 52.465 79.9491 52.0899 79.9619 51.7109C79.9619 50.8108 79.4032 50.3492 78.1423 50.3492C76.7573 50.3492 75.252 50.8768 73.801 53.4296C73.2928 51.1794 71.7681 50.194 69.6421 50.194C66.1505 50.194 62.2709 53.8835 60.5405 58.6942C58.2477 65.115 53.6271 71.3185 47.4042 71.3185C41.7593 71.3185 38.7798 66.6203 38.7798 59.1986C38.7798 48.4792 46.6477 39.7229 52.4826 39.7229C55.272 39.7229 56.6066 41.4998 56.6066 44.2271C56.6066 47.5287 54.7638 49.0611 54.7638 50.3181C54.7638 50.7061 55.0819 51.094 55.7182 51.094C58.2555 51.094 61.2389 48.1145 61.2389 44.0487C61.2389 39.9829 57.9296 36.9878 52.0908 36.9878C42.446 36.9878 32.7393 46.6868 32.7393 59.1287C32.7393 69.0217 37.6198 74.9886 46.0618 74.9886C51.8192 74.9886 56.851 70.5115 59.5629 65.2896C59.8694 69.6192 61.8363 71.8849 64.8353 71.8849C67.5006 71.8849 69.6576 70.2981 71.3065 67.5048C71.9388 70.4261 73.6342 71.8538 75.8107 71.8538C78.3169 71.8538 80.4158 70.2671 82.406 67.3147C82.375 69.6425 82.9026 71.8112 84.9123 71.8112C85.8589 71.8112 86.9917 71.59 87.1935 70.7637C89.3079 62.019 94.5337 54.8806 96.1166 54.8806C96.5899 54.8806 96.7218 55.3383 96.7218 55.8776C96.7218 58.2519 95.0458 63.1247 95.0458 66.2323C95.0458 69.592 96.4735 71.8151 99.4259 71.8151C102.696 71.8151 106.021 67.8113 108.236 61.957C108.931 67.4272 110.428 71.8383 112.776 71.8383C115.654 71.8383 120.768 65.7784 123.867 59.3615C125.549 59.6091 127.263 59.2068 128.659 58.2364C127.892 60.1533 127.49 62.1968 127.475 64.2614C127.475 70.2166 130.319 71.8849 132.767 71.8849C135.429 71.8849 137.586 70.2981 139.238 67.5048C139.782 70.0227 141.178 71.8461 143.735 71.8461C147.739 71.8461 151.219 67.7531 151.219 64.3934C151.234 63.5088 150.854 62.9812 150.412 62.9812ZM67.2833 68.5872C65.6655 68.5872 65.0331 66.9578 65.0331 64.5291C65.0331 60.312 67.9196 53.2783 70.9689 53.2783C72.3035 53.2783 72.804 54.8301 72.804 56.7699C72.804 61.0414 70.0611 68.5872 67.2833 68.5872ZM122.684 55.9979C121.786 54.8221 121.321 53.3721 121.369 51.8933C121.369 50.1746 121.997 48.7236 122.75 48.7236C123.503 48.7236 123.736 49.4646 123.736 50.4966C123.732 52.2191 123.115 54.737 122.684 55.9979ZM135.227 68.5872C133.609 68.5872 132.977 66.7134 132.977 64.5291C132.977 60.4594 135.863 53.2783 138.936 53.2783C140.27 53.2783 140.744 54.8301 140.744 56.7699C140.744 61.0414 138.047 68.5872 135.227 68.5872Z" fill="url(#paint4_radial_456_125244)"/>
<path d="M150.412 62.9812C150.301 62.9859 150.194 63.0261 150.107 63.0959C150.021 63.1657 149.959 63.2615 149.931 63.3691C148.716 66.8336 147.075 68.8976 145.725 68.8976C144.949 68.8976 144.635 68.0324 144.635 66.6746C144.635 63.2799 146.668 56.0832 147.692 52.8011C147.805 52.46 147.871 52.1049 147.886 51.7458C147.886 50.7914 147.366 50.322 146.074 50.322C144.682 50.322 143.184 50.8652 141.725 53.4257C141.221 51.1755 139.7 50.1901 137.57 50.1901C135.111 50.1901 132.736 51.773 130.781 54.3374C128.826 56.9018 126.513 57.7437 124.799 57.3286C126.044 54.2831 126.506 52.0096 126.506 50.3181C126.506 47.6684 125.198 46.07 123.08 46.07C119.864 46.07 118.009 49.1387 118.009 52.3666C118.009 54.8612 119.142 57.4101 121.629 58.6709C119.542 63.3885 116.5 67.6522 115.344 67.6522C113.85 67.6522 113.404 60.3469 113.497 55.1211C113.552 52.1221 113.8 51.9708 113.8 51.063C113.8 50.5431 113.462 50.1862 112.104 50.1862C108.943 50.1862 107.965 52.8632 107.814 55.9397C107.766 57.1077 107.584 58.2664 107.27 59.3925C105.948 64.1101 103.224 67.6871 101.451 67.6871C100.629 67.6871 100.404 66.8647 100.404 65.7861C100.404 62.3915 102.305 58.1511 102.305 54.5353C102.305 51.8739 101.141 50.194 98.9409 50.194C96.3532 50.194 92.9275 53.2744 89.6881 59.0472C90.7549 54.6284 91.1933 50.3492 88.0353 50.3492C87.351 50.359 86.679 50.5333 86.0761 50.8574C85.8734 50.9521 85.7039 51.1056 85.5898 51.298C85.4756 51.4903 85.422 51.7127 85.436 51.9359C85.7386 56.6419 81.6456 68.692 77.7621 68.692C77.056 68.692 76.7146 67.916 76.7146 66.694C76.7146 63.2916 78.7398 56.1143 79.7601 52.8244C79.8812 52.465 79.9491 52.0899 79.9619 51.7109C79.9619 50.8108 79.4032 50.3492 78.1423 50.3492C76.7573 50.3492 75.252 50.8768 73.801 53.4296C73.2928 51.1794 71.7681 50.194 69.6421 50.194C66.1505 50.194 62.2709 53.8835 60.5405 58.6942C58.2477 65.115 53.6271 71.3185 47.4042 71.3185C41.7593 71.3185 38.7798 66.6203 38.7798 59.1986C38.7798 48.4792 46.6477 39.7229 52.4826 39.7229C55.272 39.7229 56.6066 41.4998 56.6066 44.2271C56.6066 47.5287 54.7638 49.0611 54.7638 50.3181C54.7638 50.7061 55.0819 51.094 55.7182 51.094C58.2555 51.094 61.2389 48.1145 61.2389 44.0487C61.2389 39.9829 57.9296 36.9878 52.0908 36.9878C42.446 36.9878 32.7393 46.6868 32.7393 59.1287C32.7393 69.0217 37.6198 74.9886 46.0618 74.9886C51.8192 74.9886 56.851 70.5115 59.5629 65.2896C59.8694 69.6192 61.8363 71.8849 64.8353 71.8849C67.5006 71.8849 69.6576 70.2981 71.3065 67.5048C71.9388 70.4261 73.6342 71.8538 75.8107 71.8538C78.3169 71.8538 80.4158 70.2671 82.406 67.3147C82.375 69.6425 82.9026 71.8112 84.9123 71.8112C85.8589 71.8112 86.9917 71.59 87.1935 70.7637C89.3079 62.019 94.5337 54.8806 96.1166 54.8806C96.5899 54.8806 96.7218 55.3383 96.7218 55.8776C96.7218 58.2519 95.0458 63.1247 95.0458 66.2323C95.0458 69.592 96.4735 71.8151 99.4259 71.8151C102.696 71.8151 106.021 67.8113 108.236 61.957C108.931 67.4272 110.428 71.8383 112.776 71.8383C115.654 71.8383 120.768 65.7784 123.867 59.3615C125.549 59.6091 127.263 59.2068 128.659 58.2364C127.892 60.1533 127.49 62.1968 127.475 64.2614C127.475 70.2166 130.319 71.8849 132.767 71.8849C135.429 71.8849 137.586 70.2981 139.238 67.5048C139.782 70.0227 141.178 71.8461 143.735 71.8461C147.739 71.8461 151.219 67.7531 151.219 64.3934C151.234 63.5088 150.854 62.9812 150.412 62.9812ZM67.2833 68.5872C65.6655 68.5872 65.0331 66.9578 65.0331 64.5291C65.0331 60.312 67.9196 53.2783 70.9689 53.2783C72.3035 53.2783 72.804 54.8301 72.804 56.7699C72.804 61.0414 70.0611 68.5872 67.2833 68.5872ZM122.684 55.9979C121.786 54.8221 121.321 53.3721 121.369 51.8933C121.369 50.1746 121.997 48.7236 122.75 48.7236C123.503 48.7236 123.736 49.4646 123.736 50.4966C123.732 52.2191 123.115 54.737 122.684 55.9979ZM135.227 68.5872C133.609 68.5872 132.977 66.7134 132.977 64.5291C132.977 60.4594 135.863 53.2783 138.936 53.2783C140.27 53.2783 140.744 54.8301 140.744 56.7699C140.744 61.0414 138.047 68.5872 135.227 68.5872Z" fill="url(#paint5_radial_456_125244)"/>
</g>
<defs>
<linearGradient id="paint0_linear_456_125244" x1="149.946" y1="75.6559" x2="51.3614" y2="52.192" gradientUnits="userSpaceOnUse">
<stop stop-color="#7D2AE7"/>
<stop offset="0.77" stop-color="#7D2AE7"/>
<stop offset="1" stop-color="#7D2AE7" stop-opacity="0"/>
</linearGradient>
<radialGradient id="paint1_radial_456_125244" cx="0" cy="0" r="1" gradientUnits="userSpaceOnUse" gradientTransform="translate(93.5304 76.641) rotate(-45.8069) scale(35.0628 23.3024)">
<stop stop-color="#6420FF"/>
<stop offset="1" stop-color="#6420FF" stop-opacity="0"/>
</radialGradient>
<radialGradient id="paint2_radial_456_125244" cx="0" cy="0" r="1" gradientUnits="userSpaceOnUse" gradientTransform="translate(36.5796 63.9796) rotate(5.08826) scale(68.2397 54.3884)">
<stop offset="0.25" stop-color="#00C4CC"/>
<stop offset="1" stop-color="#00C4CC" stop-opacity="0"/>
</radialGradient>
<radialGradient id="paint3_radial_456_125244" cx="0" cy="0" r="1" gradientUnits="userSpaceOnUse" gradientTransform="translate(81.1848 73.7246) rotate(-38.8493) scale(43.9745 30.0686)">
<stop stop-color="#6420FF"/>
<stop offset="1" stop-color="#6420FF" stop-opacity="0"/>
</radialGradient>
<radialGradient id="paint4_radial_456_125244" cx="0" cy="0" r="1" gradientUnits="userSpaceOnUse" gradientTransform="translate(38.5276 82.2124) rotate(-34.2673) scale(51.2637 35.0524)">
<stop stop-color="#6420FF"/>
<stop offset="1" stop-color="#6420FF" stop-opacity="0"/>
</radialGradient>
<radialGradient id="paint5_radial_456_125244" cx="0" cy="0" r="1" gradientUnits="userSpaceOnUse" gradientTransform="translate(43.7824 42.0649) rotate(12.4717) scale(101.321 124.266)">
<stop stop-color="#00C4CC"/>
<stop offset="1" stop-color="#00C4CC" stop-opacity="0"/>
</radialGradient>
<clipPath id="clip0_456_125244">
<rect width="118.491" height="38.0008" fill="white" transform="translate(32.7432 36.9995)"/>
</clipPath>
</defs>
</svg>
