<svg width="40" height="40" viewBox="0 0 40 40" fill="none" xmlns="http://www.w3.org/2000/svg">
<mask id="mask0_3710_5488" style="mask-type:alpha" maskUnits="userSpaceOnUse" x="0" y="3" width="39" height="34">
<path d="M31.9078 5.37224L26.1124 3.79168C23.9644 3.2243 21.6139 3.50799 19.5875 4.44011L6.33514 10.8029C3.05245 12.3024 0.90451 15.7472 0.90451 19.3946V23.4879C0.90451 26.9327 2.76876 30.1343 5.76777 31.7959L12.1305 35.3623C13.63 36.2134 15.2106 36.5781 16.7911 36.5781C18.5743 36.5781 20.3575 36.0918 21.9381 35.0786L34.6231 26.8516C37.3789 25.0684 39 22.0694 39 18.8272V14.6124C39 10.2355 36.0821 6.42594 31.9078 5.37224Z" fill="#DEDEDE"/>
</mask>
<g mask="url(#mask0_3710_5488)">
<circle cx="-0.381751" cy="4.50283" r="1.5" transform="rotate(-11.3111 -0.381751 4.50283)" fill="#0A0B1E"/>
<circle cx="5.01141" cy="3.4241" r="1.5" transform="rotate(-11.3111 5.01141 3.4241)" fill="#0A0B1E"/>
<circle cx="10.4046" cy="2.34536" r="1.5" transform="rotate(-11.3111 10.4046 2.34536)" fill="#0A0B1E"/>
<circle cx="0.697015" cy="9.89602" r="1.5" transform="rotate(-11.3111 0.697015 9.89602)" fill="#0A0B1E"/>
<circle cx="6.09017" cy="8.81729" r="1.5" transform="rotate(-11.3111 6.09017 8.81729)" fill="#0A0B1E"/>
<circle cx="11.4834" cy="7.73855" r="1.5" transform="rotate(-11.3111 11.4834 7.73855)" fill="#0A0B1E"/>
<circle cx="16.8765" cy="6.65981" r="1.5" transform="rotate(-11.3111 16.8765 6.65981)" fill="#0A0B1E"/>
<circle cx="22.2697" cy="5.58108" r="1.5" transform="rotate(-11.3111 22.2697 5.58108)" fill="#0A0B1E"/>
<circle cx="27.6629" cy="4.50222" r="1.5" transform="rotate(-11.3111 27.6629 4.50222)" fill="#0A0B1E"/>
<circle cx="33.0561" cy="3.42349" r="1.5" transform="rotate(-11.3111 33.0561 3.42349)" fill="#0A0B1E"/>
<circle cx="38.4492" cy="2.34475" r="1.5" transform="rotate(-11.3111 38.4492 2.34475)" fill="#0A0B1E"/>
<circle cx="1.77575" cy="15.2892" r="1.5" transform="rotate(-11.3111 1.77575 15.2892)" fill="#0A0B1E"/>
<circle cx="7.16891" cy="14.2105" r="1.5" transform="rotate(-11.3111 7.16891 14.2105)" fill="#0A0B1E"/>
<circle cx="12.5621" cy="13.1317" r="1.5" transform="rotate(-11.3111 12.5621 13.1317)" fill="#0A0B1E"/>
<circle cx="17.9553" cy="12.053" r="1.5" transform="rotate(-11.3111 17.9553 12.053)" fill="#0A0B1E"/>
<circle cx="23.3484" cy="10.9743" r="1.5" transform="rotate(-11.3111 23.3484 10.9743)" fill="#0A0B1E"/>
<circle cx="28.7416" cy="9.89541" r="1.5" transform="rotate(-11.3111 28.7416 9.89541)" fill="#0A0B1E"/>
<circle cx="34.1348" cy="8.81668" r="1.5" transform="rotate(-11.3111 34.1348 8.81668)" fill="#0A0B1E"/>
<circle cx="39.5279" cy="7.73794" r="1.5" transform="rotate(-11.3111 39.5279 7.73794)" fill="#0A0B1E"/>
<circle cx="2.85452" cy="20.6823" r="1.5" transform="rotate(-11.3111 2.85452 20.6823)" fill="#0A0B1E"/>
<circle cx="8.24767" cy="19.6035" r="1.5" transform="rotate(-11.3111 8.24767 19.6035)" fill="#0A0B1E"/>
<circle cx="13.6409" cy="18.5248" r="1.5" transform="rotate(-11.3111 13.6409 18.5248)" fill="#0A0B1E"/>
<circle cx="19.034" cy="17.4461" r="1.5" transform="rotate(-11.3111 19.034 17.4461)" fill="#0A0B1E"/>
<circle cx="24.4272" cy="16.3673" r="1.5" transform="rotate(-11.3111 24.4272 16.3673)" fill="#0A0B1E"/>
<circle cx="29.8204" cy="15.2885" r="1.5" transform="rotate(-11.3111 29.8204 15.2885)" fill="#0A0B1E"/>
<circle cx="35.2136" cy="14.2097" r="1.5" transform="rotate(-11.3111 35.2136 14.2097)" fill="#0A0B1E"/>
<circle cx="40.6067" cy="13.131" r="1.5" transform="rotate(-11.3111 40.6067 13.131)" fill="#0A0B1E"/>
<circle cx="3.93325" cy="26.0755" r="1.5" transform="rotate(-11.3111 3.93325 26.0755)" fill="#0A0B1E"/>
<circle cx="9.32641" cy="24.9967" r="1.5" transform="rotate(-11.3111 9.32641 24.9967)" fill="#0A0B1E"/>
<circle cx="14.7196" cy="23.918" r="1.5" transform="rotate(-11.3111 14.7196 23.918)" fill="#0A0B1E"/>
<circle cx="20.1128" cy="22.8393" r="1.5" transform="rotate(-11.3111 20.1128 22.8393)" fill="#0A0B1E"/>
<circle cx="25.5059" cy="21.7605" r="1.5" transform="rotate(-11.3111 25.5059 21.7605)" fill="#0A0B1E"/>
<circle cx="30.8991" cy="20.6817" r="1.5" transform="rotate(-11.3111 30.8991 20.6817)" fill="#0A0B1E"/>
<circle cx="36.2923" cy="19.6029" r="1.5" transform="rotate(-11.3111 36.2923 19.6029)" fill="#0A0B1E"/>
<circle cx="5.01202" cy="31.4687" r="1.5" transform="rotate(-11.3111 5.01202 31.4687)" fill="#0A0B1E"/>
<circle cx="10.4052" cy="30.3899" r="1.5" transform="rotate(-11.3111 10.4052 30.3899)" fill="#0A0B1E"/>
<circle cx="15.7984" cy="29.3112" r="1.5" transform="rotate(-11.3111 15.7984 29.3112)" fill="#0A0B1E"/>
<circle cx="21.1915" cy="28.2324" r="1.5" transform="rotate(-11.3111 21.1915 28.2324)" fill="#0A0B1E"/>
<circle cx="26.5847" cy="27.1537" r="1.5" transform="rotate(-11.3111 26.5847 27.1537)" fill="#0A0B1E"/>
<circle cx="31.9779" cy="26.0749" r="1.5" transform="rotate(-11.3111 31.9779 26.0749)" fill="#0A0B1E"/>
<circle cx="37.3711" cy="24.9961" r="1.5" transform="rotate(-11.3111 37.3711 24.9961)" fill="#0A0B1E"/>
<circle cx="6.09075" cy="36.8618" r="1.5" transform="rotate(-11.3111 6.09075 36.8618)" fill="#0A0B1E"/>
<circle cx="11.4839" cy="35.7831" r="1.5" transform="rotate(-11.3111 11.4839 35.7831)" fill="#0A0B1E"/>
<circle cx="16.8771" cy="34.7044" r="1.5" transform="rotate(-11.3111 16.8771 34.7044)" fill="#0A0B1E"/>
<circle cx="22.2703" cy="33.6256" r="1.5" transform="rotate(-11.3111 22.2703 33.6256)" fill="#0A0B1E"/>
<circle cx="27.6634" cy="32.5469" r="1.5" transform="rotate(-11.3111 27.6634 32.5469)" fill="#0A0B1E"/>
<circle cx="33.0566" cy="31.468" r="1.5" transform="rotate(-11.3111 33.0566 31.468)" fill="#0A0B1E"/>
<circle cx="38.4498" cy="30.3893" r="1.5" transform="rotate(-11.3111 38.4498 30.3893)" fill="#0A0B1E"/>
</g>
</svg>
