<svg width="40" height="40" viewBox="0 0 40 40" fill="none" xmlns="http://www.w3.org/2000/svg">
<path d="M2.12159 9.82025C2.50277 6.90588 4.84575 4.8761 7.77422 4.62532C10.543 4.38821 14.5801 4.16675 20.0013 4.16675C25.4225 4.16675 29.4596 4.38821 32.2284 4.62532C35.1569 4.8761 37.4998 6.90588 37.881 9.82025C38.1324 11.7419 38.3346 14.2866 38.3346 17.5001C38.3346 20.7135 38.1324 23.2583 37.881 25.1799C37.4998 28.0943 35.1569 30.1241 32.2284 30.3748C29.4596 30.612 25.4225 30.8334 20.0013 30.8334C14.5801 30.8334 10.543 30.612 7.77422 30.3748C4.84575 30.1241 2.50277 28.0943 2.12159 25.1799C1.87025 23.2583 1.66797 20.7135 1.66797 17.5001C1.66797 14.2866 1.87025 11.7419 2.12159 9.82025Z" stroke="#0A0B1E" stroke-width="2"/>
<path d="M11.667 35.0007C11.667 35.0007 14.792 34.1667 20.0003 34.1667C25.2087 34.1667 28.3337 35.0007 28.3337 35.0007" stroke="#0A0B1E" stroke-width="2" stroke-linecap="round" stroke-linejoin="round"/>
</svg>
