<svg width="337" height="112" viewBox="0 0 337 112" fill="none" xmlns="http://www.w3.org/2000/svg">
<rect width="336.372" height="112" fill="white"/>
<path d="M298.196 56.5674L297.47 56.3404C295.108 55.7046 293.791 55.1143 293.791 53.979C293.791 52.8892 295.017 52.0264 296.879 52.0264C299.695 52.0264 300.966 53.6157 301.693 55.1143L303.282 54.9781C302.919 53.4795 302.646 52.3897 302.556 51.5269C302.056 51.3906 301.557 51.3906 300.694 51.1636C299.695 51.0273 298.469 50.9365 297.379 50.9365C291.702 50.9365 288.887 53.0254 288.887 55.4776C288.887 57.8389 292.202 59.065 295.199 59.7916L295.699 59.9278C297.924 60.5636 299.286 61.2901 299.286 62.6524C299.286 64.151 297.787 64.8775 295.971 64.8775C292.52 64.8775 290.295 62.4254 289.568 61.1993L287.979 61.4263C288.342 62.7887 288.705 63.8785 289.069 64.7413C287.843 64.6051 286.98 64.2418 285.254 62.8795C283.029 61.0177 280.713 58.9288 278.488 56.8399C279.987 55.75 281.712 54.6148 283.665 53.5249C285.527 52.4351 286.617 52.1626 288.615 52.0264V51.2998H279.124V52.0264L280.486 52.1626C281.485 52.2988 281.122 52.7984 280.622 53.2525C278.533 54.9781 276.445 56.5674 273.856 58.4293V54.751C273.856 52.3897 274.083 52.0264 276.445 51.9356V51.209H265.455V51.9356C267.907 52.0718 268.18 52.4351 268.18 54.751V62.0167C268.18 63.379 268.044 64.2418 267.544 64.4689C266.681 64.8321 266.182 64.6051 265.591 64.1056C264.956 63.606 264.229 62.7433 263.003 61.5172C262.004 60.5181 260.642 58.9288 260.188 58.293C262.776 57.6573 264.729 56.4312 264.729 54.6148C264.729 53.2525 263.639 52.2534 262.276 51.7993C260.914 51.2998 259.052 51.0728 256.237 51.0728H244.884L245.111 51.7993C247.473 51.9356 247.563 52.2988 247.563 54.6148V61.8805C247.563 64.2418 247.336 64.6051 244.748 64.6959V65.4225H256.01V64.6959C253.558 64.5597 253.285 64.1964 253.285 61.8805V59.1558H253.785C254.42 59.1558 255.011 59.5191 255.283 59.8824C256.146 61.1085 257.145 62.4708 258.235 63.4698C259.733 64.6959 260.823 65.5587 265.773 65.4225C266.136 65.4225 267.499 65.2862 267.862 65.2862H276.49V64.5597C274.038 64.4234 273.675 64.0602 273.675 61.7442V58.1568H273.811C276.399 60.609 280.123 63.8331 281.44 65.1954H289.568V64.6959C290.068 64.8321 290.658 64.923 291.43 65.0592C292.429 65.2862 293.882 65.4225 295.244 65.4225C300.785 65.4225 304.372 63.4698 304.372 60.7452C304.372 58.5201 301.511 57.4302 298.196 56.5674ZM256.509 57.9297C255.874 58.293 255.011 58.293 253.785 58.293H253.285V53.2525C253.285 52.3897 253.421 52.1626 254.875 52.1626C256.237 52.1626 258.462 53.0254 258.462 55.1143C258.598 56.2041 257.962 57.1578 256.509 57.9297Z" fill="#052C6F"/>
<path d="M235.757 50.8912C230.58 50.8912 226.992 52.3897 225.13 54.3423C226.357 52.1172 227.083 50.6641 227.219 50.3916C228.945 47.667 229.308 47.44 232.169 47.1675V46.1685H220.317V47.1675L222.179 47.3037C224.268 47.44 224.404 47.9395 223.768 49.6651C223.042 51.5269 221.18 55.7047 219.454 59.2921L219.318 59.1559L211.78 46.2139H208.329L201.789 59.1559L201.653 59.2921L196.976 49.0747C196.34 47.8487 196.476 47.4854 198.338 47.3491L199.928 47.2129V46.2139H184.488V47.2129C186.849 47.3491 187.712 47.7124 189.029 50.1646L189.665 51.2544H182.263L176.723 60.1549L170.411 51.2544H162.01V51.981C164.825 52.1172 165.234 52.6168 164.825 55.4322L164.462 59.9733C164.235 62.0621 164.099 63.1974 163.826 63.924C163.826 64.151 163.69 64.4235 163.463 64.5597C163.236 64.5597 162.736 63.6969 162.237 62.9703C160.875 60.609 159.421 58.0206 157.923 55.3414L155.562 51.1636L153.2 51.5269L146.298 63.1066C146.162 63.2428 146.162 63.3336 146.071 63.4699C145.844 63.8331 145.571 64.1964 145.208 64.4689C144.481 64.9684 142.393 65.1046 141.03 65.1046C139.94 65.1046 139.168 65.1046 138.578 64.8776C137.942 64.6505 137.852 63.8785 137.852 62.7887V59.1104H139.577C142.665 59.1104 142.665 59.2467 143.028 61.1993H144.618V55.8863H143.028C142.665 57.6119 142.529 57.7481 139.577 57.7481H137.852V53.4341C137.852 52.7076 137.988 52.4351 139.214 52.4351H139.85C141.711 52.4351 142.937 52.5713 143.437 52.9346C144.073 53.2979 144.436 54.0245 144.799 55.1597L146.389 55.0235C146.252 53.2979 146.025 51.7085 146.025 51.3453H129.224V52.0718C131.585 52.2081 131.812 52.5713 131.812 54.8873V62.2892C131.812 64.3781 131.585 64.7413 129.723 65.0138C129.36 64.8776 129.087 64.6505 128.724 64.3781C128.088 63.8785 127.362 63.152 126.272 62.0167C125.273 61.0177 123.91 59.4283 123.456 58.7926C126.045 58.1568 127.997 56.9308 127.997 54.9781C127.997 53.6158 126.908 52.6168 125.545 52.1626C124.183 51.5269 122.321 51.4361 119.642 51.4361H108.834C108.108 50.437 106.972 49.5742 105.883 48.9839C102.568 47.0313 97.3908 46.2593 91.3058 46.2593H76.729V47.4854C79.9532 47.6216 80.4073 47.8487 80.4073 51.0728V60.9269C80.4073 64.151 80.044 64.5143 76.3203 64.7414V65.8312H89.3531C100.933 65.8312 110.333 62.6071 110.333 55.1143C110.333 54.1153 109.969 53.1617 109.47 52.1626C111.059 52.2989 111.332 52.8892 111.332 54.9781V62.38C111.332 64.8322 111.105 65.1046 108.607 65.1955V65.922H119.597V65.1955C117.235 65.0592 116.872 64.6959 116.872 62.38V59.6554H117.371C118.007 59.6554 118.461 60.0187 118.87 60.5182C119.733 61.7443 120.732 63.1066 121.685 64.1056C123.048 65.4679 124.274 66.0583 129.224 66.1945C129.95 66.1945 130.45 66.0583 130.722 66.0583H150.93V65.3317L149.931 65.1955C148.341 65.0592 148.341 64.6959 148.841 63.6969L149.84 61.608H155.516L156.742 63.9694C157.242 64.8322 157.106 65.1955 155.879 65.3317L154.88 65.4679V66.1945H170.184V65.4679C167.822 65.3317 166.96 64.9684 166.869 64.1056C166.733 63.379 166.733 62.38 166.733 60.4274L166.96 55.4776H167.096L173.771 65.9674H175.724L182.762 54.751H182.899L183.035 62.6525C183.035 65.1046 182.899 65.3771 180.219 65.4679V66.1945H191.572V65.4679C188.984 65.3317 188.847 65.1046 188.757 62.6525L188.393 55.1143C188.257 53.0254 188.393 52.6622 190.255 52.3897L197.657 66.4669H201.472L208.147 54.1153H208.283L215.549 66.4669H219.363C220.862 63.5153 222.179 60.6544 223.45 58.2022C223.45 58.4293 223.45 58.5655 223.45 58.838C223.45 62.9249 228.128 66.1037 235.529 66.1037C242.432 66.1037 247.745 63.152 247.745 58.3385C247.472 53.8428 242.432 50.8912 235.757 50.8912ZM92.441 64.3326C90.0797 64.3326 88.9898 63.6969 88.9898 61.0177V49.438C88.9898 48.7114 88.9898 47.9395 89.2169 47.9395C89.5802 47.8032 90.2159 47.7124 91.3058 47.7124C95.4835 47.7124 101.069 49.5742 101.069 55.9771C101.069 61.381 96.755 64.3326 92.441 64.3326ZM120.096 58.2931C119.46 58.6563 118.597 58.6563 117.508 58.6563H117.008V53.4795C117.008 52.6167 117.144 52.3897 118.597 52.3897C119.96 52.3897 122.049 53.2525 122.049 55.4776C122.049 56.4312 121.413 57.5665 120.096 58.2931ZM150.43 60.2457L152.519 55.9317H152.655L154.88 60.2457H150.43ZM235.893 64.6959C232.305 64.6959 229.853 61.7443 229.853 57.7935C229.853 53.9791 232.215 51.981 234.894 51.981C237.982 51.981 240.57 54.4332 240.57 58.8834C240.706 62.8341 239.117 64.6959 235.893 64.6959Z" fill="#052C6F"/>
<path d="M47.4395 56.7946C47.5758 56.7946 47.5758 56.7946 47.6666 56.6583C47.5304 56.2951 47.6666 56.1588 48.0299 56.1588C47.8937 56.3859 48.2569 56.8854 48.6656 57.0216C49.0289 57.1579 49.1651 57.7482 49.1651 57.8844C49.5284 58.2477 51.1178 58.2477 51.5265 58.2477C51.6627 58.0207 51.7535 57.8844 52.3893 57.8844C52.8888 57.8844 53.1159 58.0207 53.4791 58.384C53.7062 58.5202 53.4791 58.2477 54.1149 58.1569C54.6144 58.1569 54.8415 57.9298 55.1139 57.7936C55.341 57.6574 55.341 57.5666 55.4772 57.4303C55.6134 57.2941 55.6134 57.2033 55.7043 57.067C55.8405 56.9308 55.8405 56.5675 55.8405 56.4313C55.8405 56.2951 55.341 56.5675 55.341 56.5675C54.9777 56.7038 54.8415 56.4313 54.8415 56.3405C54.8415 56.2043 54.8415 56.1134 54.7052 56.1134C54.569 56.1134 54.569 55.9772 54.569 55.8864C54.4328 55.8864 54.4328 55.7501 54.4328 55.7501C54.569 55.7501 54.4328 55.5231 54.4328 55.5231C54.2965 55.5231 54.2057 55.5231 54.2057 55.3869C54.2057 55.2506 54.3419 55.1598 54.4328 55.0236C54.569 54.8873 54.569 54.7965 54.4328 54.6603C54.2965 54.4332 54.2965 54.1608 54.4328 54.0245C54.2057 54.0245 54.0695 54.2516 54.0695 54.2516C53.9333 54.0245 53.9333 53.7521 54.0695 53.6159C53.9333 53.7521 53.8424 53.8429 53.8424 53.8429C53.9787 52.3444 55.7043 51.8903 56.2038 51.754C57.0666 51.6178 58.2927 51.527 58.1564 52.1173C58.1564 52.1173 58.3835 51.6178 57.9294 51.4816C58.1564 51.4816 58.4289 51.7086 58.2927 51.9811C58.4289 51.8448 58.6559 51.8448 58.7922 51.9811C58.6559 51.9811 58.4289 52.1173 58.4289 52.2081C58.6559 52.2081 58.9284 52.3444 59.1555 53.2071C59.2917 53.5704 59.3825 54.7965 58.9284 55.1598V55.0236C58.9284 55.0236 58.7922 55.2506 58.4289 55.2506C58.4289 55.2506 58.4289 55.3869 58.4289 55.4777C58.4289 55.4777 58.9284 55.2506 59.1555 55.3414C59.1555 55.3414 58.9284 55.841 58.7922 55.9772C59.1555 55.9772 60.1545 56.6129 60.1545 58.0661C60.2907 58.2931 60.3815 59.4284 60.3815 60.155C61.2443 59.0651 62.2434 57.2033 62.7429 54.2516C63.3786 51.0275 63.1062 47.9395 61.653 44.897C59.5641 40.356 54.4782 37.1318 49.7101 36.6323C50.7091 36.269 51.6627 36.1328 52.5255 36.1328C52.3893 36.1328 52.2985 36.1328 52.1622 36.1328C44.5333 36.1328 37.7217 40.3106 34.2705 46.6226C38.6753 48.6661 44.4879 53.2526 47.4395 56.7946Z" fill="#052C6F"/>
<path d="M45.3507 74.55C45.5777 74.55 45.9864 74.3229 46.2135 73.9143C46.5768 73.551 47.0763 73.1877 47.2125 72.9152C47.4396 72.6882 47.712 72.1887 47.9391 71.8254C48.1661 71.3259 48.5748 70.7355 48.5748 70.236C48.3478 70.0089 48.2115 70.009 47.9391 69.8727C47.8029 69.7365 47.8028 69.6457 48.0753 69.5094C48.3024 69.2824 48.4386 69.0099 48.4386 69.0099H48.5748C48.3478 68.8737 47.712 68.6466 46.8492 68.2834C45.8502 67.9201 43.5343 66.5578 42.3082 65.3317C43.398 65.9674 45.2599 66.694 47.1217 66.8302H46.9855C46.9855 66.8302 46.4859 66.4669 46.8492 66.1945C46.9855 66.0582 46.8492 66.1945 47.2125 66.3307C47.4396 66.3307 47.5758 66.3307 47.8483 66.1945C48.0753 66.0582 48.5748 65.9674 48.9381 65.695C49.3014 65.4679 49.5739 65.3317 49.9371 64.6959C50.0734 64.5597 50.0734 64.3326 50.0734 64.0602C50.0734 64.0602 50.0734 64.0602 49.7101 63.9239C49.483 63.7877 49.3468 63.924 49.3468 63.5607C49.3468 63.1974 49.483 62.5616 49.483 62.4708C49.483 62.38 49.6193 62.3346 49.9826 62.3346C50.1188 61.9713 50.2096 61.4718 50.3458 61.1085C50.3458 61.1085 50.2096 61.1085 49.9826 61.1085C49.8463 61.1085 49.7555 61.2447 49.6193 61.2447C49.6193 61.381 49.7555 61.4718 49.7555 61.608C49.8917 61.9713 49.3922 61.8351 49.3922 61.7442C49.3922 61.7442 49.256 61.5172 49.256 61.381C49.0289 61.5172 48.7565 61.381 48.7565 61.2447C48.6202 60.8814 48.6202 60.7452 48.5294 60.5182C48.3932 60.3819 48.1661 60.3819 48.3024 60.1549C48.3024 60.0187 48.4386 59.9278 48.5294 59.9278C48.5294 59.9278 48.6656 59.7916 48.7565 59.7916C48.6202 59.4283 48.3932 58.9288 48.0299 58.4293C47.5304 58.4293 47.6666 58.293 47.3942 57.7935C47.1671 57.4302 47.2579 57.4302 46.8946 57.294C46.6676 57.1578 46.6676 56.9307 46.7584 56.7945C43.5343 53.1163 37.6309 48.666 33.9527 46.9404C32.8628 49.7559 32 52.8438 32 56.0679C32 64.4689 37.313 71.5983 44.8058 74.4592V74.3229C44.8512 74.3229 44.942 74.55 45.3507 74.55Z" fill="#052C6F"/>
<path d="M50.8906 59.3828C50.7544 59.3828 50.2549 59.2466 49.6646 59.0195C49.3013 58.8833 49.0288 58.6563 48.8018 58.52C49.0288 58.8833 49.165 59.2466 49.3013 59.5191C49.5283 59.292 49.8008 59.5191 49.8008 59.7461C49.937 59.8823 49.937 59.8823 50.0278 60.1094C50.1641 60.2456 50.3911 60.1094 50.6636 60.1094L50.8906 59.3828Z" fill="#052C6F"/>
<path d="M59.6549 37.5859C63.2423 39.1753 66.194 42.127 67.6925 45.3511C70.4172 51.1637 70.1447 57.2033 65.9669 62.7433C65.1041 63.8332 60.2906 69.4187 51.6626 69.2825C51.6626 69.4187 51.5264 69.5095 51.5264 69.5095C51.5264 69.5095 51.5264 69.6457 51.6626 69.7366C51.7989 69.8728 51.5264 70.2361 51.2993 70.5994C50.9361 70.9626 50.9361 71.3259 50.6636 71.0989C50.4366 70.8718 50.3003 70.9626 50.3003 70.9626C50.3003 70.9626 49.6646 71.5984 49.4375 72.0525C49.2105 72.552 49.0742 72.9153 49.2105 73.4148C49.3467 73.6419 49.3467 74.2776 48.9834 74.4138C48.4839 74.4138 48.1206 74.4138 47.7573 74.6409C47.5303 74.7771 47.1216 75.0042 46.8945 75.1404C48.6201 75.6399 50.3457 75.867 52.2076 75.867C63.4239 75.867 72.5515 66.9665 72.5515 56.0226C72.4606 47.6671 67.1476 40.5376 59.6549 37.5859Z" fill="#052C6F"/>
<path d="M56.0679 61.1084C56.0679 60.4727 55.9316 60.0186 55.9316 60.0186L54.9326 60.2456C55.1597 60.6089 55.5684 61.3355 55.9316 61.7442C56.0679 61.6079 56.0679 61.5171 56.0679 61.1084Z" fill="#052C6F"/>
<path d="M52.3438 65.0591C52.5708 64.9229 53.2066 64.8321 53.7061 64.5596C53.7061 64.5596 53.7061 64.4234 53.5698 64.1963C53.4336 64.0601 53.2066 63.1065 52.9341 62.2437C52.9341 62.2437 52.7979 61.6079 52.707 61.6079C52.5708 61.6079 52.5708 62.4707 52.5708 62.6978C52.5708 63.0611 52.5708 62.9248 52.5708 62.9248C52.5708 62.9248 52.7979 62.9248 52.7979 63.0611C52.7979 63.1973 52.5708 64.1509 52.5708 64.4234C52.5708 64.5596 52.4346 64.5596 52.3438 64.4234C52.1167 64.4234 51.708 64.2871 51.708 64.2871C51.708 64.2871 51.5718 64.9229 51.708 65.377C51.8897 65.3316 52.1167 65.0591 52.3438 65.0591Z" fill="#052C6F"/>
</svg>
