<svg width="40" height="40" viewBox="0 0 40 40" fill="none" xmlns="http://www.w3.org/2000/svg">
<ellipse cx="14.1667" cy="15.0002" rx="1.66667" ry="1.66667" fill="#0A0B1E"/>
<ellipse cx="25.8327" cy="15.0002" rx="1.66667" ry="1.66667" fill="#0A0B1E"/>
<path d="M19.9993 33.3333C26.2128 33.3333 31.4335 29.0832 32.9131 23.3316C33.3763 21.531 31.8255 20 29.9662 20H10.0325C8.17323 20 6.62244 21.531 7.08562 23.3316C8.56516 29.0832 13.7859 33.3333 19.9993 33.3333Z" stroke="#0A0B1E" stroke-width="2"/>
<path d="M19.96 33.1667C22.3038 33.1667 24.5063 32.5619 26.42 31.5L22.9975 30.1755C21.0431 29.4192 18.8769 29.4192 16.9225 30.1755L13.5 31.5C15.4137 32.5619 17.6163 33.1667 19.96 33.1667Z" stroke="#0A0B1E" stroke-width="2"/>
<circle cx="20.0013" cy="20.0013" r="18.3333" stroke="#0A0B1E" stroke-width="2"/>
</svg>
