<svg width="40" height="40" viewBox="0 0 40 40" fill="none" xmlns="http://www.w3.org/2000/svg">
<g clip-path="url(#clip0_3710_6117)">
<path d="M30.375 19.9245L26.6089 20.8511C23.8962 21.4688 22 23.7021 22 26.2679V28.7388C22 30.6394 23.0535 32.3975 24.8444 33.4429L31.3032 37.2217C31.8984 37.57 32.5757 37.7535 33.2654 37.7535C35.6414 37.7535 37.6018 35.8945 37.7319 33.522C37.7926 32.4148 37.8634 31.1378 37.9417 29.7495C38.0668 27.5332 37.9711 25.6005 37.8376 24.1897C37.6908 22.6376 36.6896 21.3392 35.2945 20.6434L34.6152 20.3047C33.2984 19.7582 31.7709 19.5919 30.375 19.9245Z" fill="white" stroke="#0A0B1E" stroke-width="2"/>
<path d="M9.59435 19.4245L13.3743 20.3511C16.0968 20.9688 18 23.2021 18 25.7679V28.2388C18 30.1394 16.9427 31.8975 15.1453 32.9429L8.7178 36.6897C8.08428 37.059 7.3641 37.2535 6.6308 37.2535C4.21771 37.2535 2.19751 35.4473 2.08713 33.0367C2.03634 31.9276 2 30.646 2 29.2495C2 27.1864 2.07932 25.3741 2.16734 23.9982C2.27737 22.2783 3.33474 20.7873 4.88214 20.0285L5.33866 19.8047C6.6603 19.2582 8.19341 19.0919 9.59435 19.4245Z" fill="white" stroke="#0A0B1E" stroke-width="2"/>
<path d="M27.7775 14.3833L24.6702 17.0449C22.4795 18.9942 19.2265 19.1851 16.7744 17.516L14.4131 15.9088C12.5967 14.6725 11.5381 12.6158 11.5956 10.3836L11.6722 7.51632C11.7262 5.49859 13.2474 3.82417 15.2585 3.65207C17.0691 3.49713 19.328 3.34819 21.391 3.3396C23.1642 3.33221 25.0812 3.4273 26.7337 3.54297C29.0634 3.70605 30.687 5.85864 30.301 8.16194L29.9157 10.4609C29.6611 11.9577 28.9188 13.3898 27.7775 14.3833Z" fill="white" stroke="#0A0B1E" stroke-width="2"/>
</g>
<defs>
<clipPath id="clip0_3710_6117">
<rect width="40" height="40" fill="white"/>
</clipPath>
</defs>
</svg>
