<svg width="234" height="112" viewBox="0 0 234 112" fill="none" xmlns="http://www.w3.org/2000/svg">
<rect width="232.257" height="112" transform="translate(0.865234)" fill="white"/>
<path d="M60.9311 54.526C60.387 53.3438 60.1051 52.7305 59.7242 51.8104C59.373 52.7305 59.2543 53.0124 58.5915 54.5952L57.2955 57.7807H62.3953L60.9311 54.526ZM55.8314 61.723L54.0111 65.7395H48.6937L57.9534 46.2358H62.4398L71.6945 65.7395H66.4563L64.4777 61.723H55.8314ZM84.941 54.6892C86.0242 54.6892 86.4743 54.62 86.9195 54.3826C87.2676 54.1816 87.5574 53.8935 87.7603 53.5466C87.9633 53.1997 88.0724 52.8059 88.077 52.404C88.0705 52.0025 87.9605 51.6095 87.7578 51.2629C87.555 50.9163 87.2663 50.6278 86.9195 50.4254C86.4941 50.188 86.044 50.1385 84.941 50.1385H78.4463V54.6497L84.941 54.6892ZM78.4463 65.7395H73.5593V46.2358H86.2864C88.5518 46.2358 89.7785 46.5227 90.936 47.2251C91.6711 47.6913 92.2755 48.3368 92.6926 49.1008C93.1096 49.8648 93.3256 50.7224 93.3202 51.5928C93.3202 53.9077 92.1182 55.629 89.922 56.5392C91.856 57.2267 92.4496 58.31 92.4941 61.357C92.5881 63.7906 92.7315 64.4979 93.3202 65.7494H87.9385C87.5823 64.6612 87.5131 64.216 87.5626 62.3463C87.5626 59.5169 86.781 58.6414 84.2781 58.6414H78.4463V65.7395ZM116.173 65.7395V46.2358H134.019V50.1929H121.06V53.8533H132.511V57.8104H121.06V61.8269H134.019V65.784L116.173 65.7395ZM148.186 65.7395H143.299V50.1781H136.547V46.221H154.913V50.1781H148.186V65.7395ZM178.853 58.1121C177.458 63.662 173.66 66.4468 167.358 66.4468C160.181 66.4468 155.645 62.4551 155.645 56.1781C155.645 49.7478 160.319 45.5532 167.472 45.5532C170.9 45.5532 173.59 46.4485 175.712 48.3628C177.155 49.563 178.16 51.2064 178.571 53.0371H173.303C172.314 50.5639 170.38 49.3521 167.452 49.3521C163.529 49.3521 160.819 52.1171 160.819 56.0841C160.819 59.9522 163.51 62.648 167.358 62.648C170.474 62.648 172.339 61.2531 173.472 58.1121H178.853ZM196.255 46.2358V53.8384H186.204V46.2358H181.317V65.7395H186.204V57.7807H196.24V65.7395H201.122V46.2358H196.255ZM32.8652 65.7395V46.2358H49.9798V50.1929H37.7523V53.8533H48.9658V57.8104H37.7523V65.7395H32.8652ZM96.5304 65.7395V46.2358H113.65V50.1929H101.417V53.8533H112.656V57.8104H101.417V65.7395H96.5304Z" fill="black"/>
</svg>
