<svg width="88" height="88" viewBox="0 0 88 88" fill="none" xmlns="http://www.w3.org/2000/svg">
<path d="M25.7003 21.8654C13.505 31.9433 11.7886 49.9993 21.8665 62.1946C31.9444 74.3899 50.0005 76.1064 62.1958 66.0285C74.3911 55.9505 76.1075 37.8945 66.0296 25.6992C55.9517 13.5039 37.8956 11.7874 25.7003 21.8654Z" fill="white" stroke="white" stroke-width="6.98" stroke-miterlimit="10"/>
<path d="M25.7009 21.8654C13.5056 31.9433 11.7891 49.9993 21.8671 62.1946C31.945 74.3899 50.001 76.1064 62.1963 66.0285C74.3916 55.9505 76.1081 37.8945 66.0302 25.6992C55.9522 13.5039 37.8962 11.7874 25.7009 21.8654Z" fill="white" stroke="#0A0B1E" stroke-width="4.98113" stroke-miterlimit="10"/>
<path d="M42.8657 46.1937L45.1127 47.2729L47.271 42.779L45.024 41.6998L42.8657 46.1937ZM29.9608 23.4718L29.3243 21.0618L24.5043 22.3347L25.1407 24.7447L29.9608 23.4718ZM43.9449 43.9468C45.024 41.6998 45.0246 41.7001 45.0251 41.7004C45.0253 41.7004 45.0258 41.7007 45.0261 41.7008C45.0267 41.7011 45.0272 41.7014 45.0277 41.7016C45.0286 41.702 45.0292 41.7023 45.0294 41.7024C45.03 41.7027 45.0292 41.7023 45.0272 41.7014C45.0233 41.6994 45.0143 41.695 45.0006 41.6881C44.9731 41.6743 44.9264 41.6507 44.862 41.6169C44.7332 41.5495 44.5338 41.442 44.275 41.2933C43.7571 40.9958 43.0044 40.5352 42.1073 39.9029C40.3084 38.6351 37.9565 36.697 35.7494 34.0262L31.9065 37.2019C34.4592 40.2909 37.1658 42.5192 39.2354 43.9778C40.2725 44.7088 41.1567 45.2513 41.7919 45.6162C42.1098 45.7988 42.366 45.9373 42.5488 46.033C42.6402 46.0809 42.7133 46.1181 42.7666 46.1448C42.7932 46.1582 42.8149 46.1689 42.8315 46.1771C42.8398 46.1811 42.8468 46.1846 42.8525 46.1873C42.8554 46.1887 42.8579 46.1899 42.8601 46.191C42.8612 46.1915 42.8622 46.192 42.8632 46.1925C42.8636 46.1927 42.8643 46.193 42.8645 46.1931C42.8651 46.1934 42.8657 46.1937 43.9449 43.9468ZM35.7494 34.0262C33.5423 31.3554 32.0821 28.6804 31.176 26.6749C30.7241 25.6747 30.4135 24.8487 30.2189 24.284C30.1217 24.0019 30.0537 23.7857 30.0117 23.6465C29.9907 23.577 29.9762 23.5267 29.9679 23.4971C29.9637 23.4823 29.9611 23.4727 29.9599 23.4684C29.9593 23.4663 29.9591 23.4655 29.9592 23.466C29.9593 23.4663 29.9595 23.4669 29.9597 23.4679C29.9599 23.4684 29.96 23.4689 29.9602 23.4696C29.9603 23.4699 29.9604 23.4705 29.9605 23.4706C29.9606 23.4712 29.9608 23.4718 27.5508 24.1083C25.1407 24.7447 25.1409 24.7453 25.1411 24.746C25.1412 24.7463 25.1413 24.7469 25.1415 24.7474C25.1417 24.7484 25.142 24.7495 25.1423 24.7507C25.143 24.7531 25.1437 24.7558 25.1445 24.7589C25.1462 24.765 25.1482 24.7725 25.1506 24.7814C25.1555 24.7993 25.162 24.8226 25.1701 24.8513C25.1863 24.9087 25.209 24.9875 25.2388 25.0863C25.2984 25.2838 25.3862 25.5615 25.5056 25.9081C25.7442 26.6007 26.1105 27.5713 26.6329 28.7275C27.6754 31.0349 29.3538 34.1128 31.9065 37.2019L35.7494 34.0262Z" fill="#0A0B1E"/>
<path d="M38.8124 59.329L41.1179 60.2765L43.0129 55.6654L40.7074 54.7179L38.8124 59.329ZM21.0737 32.3683L20.4311 29.9599L15.6143 31.245L16.2569 33.6534L21.0737 32.3683ZM39.7599 57.0234C40.7074 54.7179 40.708 54.7181 40.7085 54.7184C40.7087 54.7184 40.7092 54.7187 40.7095 54.7188C40.7101 54.719 40.7107 54.7193 40.7111 54.7194C40.7119 54.7198 40.7123 54.7199 40.7123 54.7199C40.7123 54.7199 40.7107 54.7193 40.7074 54.7179C40.7009 54.7152 40.688 54.7097 40.6688 54.7014C40.6306 54.6849 40.5675 54.6572 40.4815 54.6182C40.3095 54.54 40.0461 54.4164 39.706 54.2448C39.0254 53.9015 38.0411 53.3679 36.8704 52.6255C34.5238 51.1374 31.4603 48.8306 28.5904 45.5637L24.8451 48.8539C28.0997 52.5588 31.5572 55.1593 34.2006 56.8356C35.5248 57.6754 36.6527 58.2882 37.4606 58.6958C37.8647 58.8997 38.1896 59.0526 38.4198 59.1572C38.5349 59.2094 38.6265 59.2497 38.6925 59.2782C38.7255 59.2925 38.7522 59.3038 38.7722 59.3122C38.7823 59.3165 38.7906 59.32 38.7973 59.3228C38.8007 59.3242 38.8036 59.3254 38.8061 59.3264C38.8074 59.3269 38.8085 59.3274 38.8096 59.3278C38.8101 59.328 38.8108 59.3283 38.811 59.3284C38.8117 59.3287 38.8124 59.329 39.7599 57.0234ZM28.5904 45.5637C25.7205 42.2968 23.8277 38.9616 22.6543 36.4428C22.0689 35.1862 21.6666 34.1414 21.4138 33.4222C21.2875 33.0629 21.1988 32.7857 21.1435 32.6051C21.1158 32.5148 21.0965 32.4487 21.0851 32.4086C21.0793 32.3886 21.0756 32.375 21.0737 32.3682C21.0727 32.3648 21.0723 32.3631 21.0723 32.3631C21.0723 32.3631 21.0724 32.3636 21.0726 32.3644C21.0727 32.3648 21.0729 32.3654 21.0731 32.366C21.0731 32.3663 21.0733 32.3669 21.0733 32.3671C21.0735 32.3677 21.0737 32.3683 18.6653 33.0108C16.2569 33.6534 16.257 33.6541 16.2572 33.6548C16.2573 33.6551 16.2575 33.6558 16.2576 33.6563C16.2579 33.6574 16.2583 33.6586 16.2586 33.6599C16.2593 33.6625 16.2601 33.6656 16.2611 33.6691C16.263 33.6761 16.2654 33.6849 16.2683 33.6953C16.2741 33.7163 16.2819 33.7442 16.2918 33.7788C16.3115 33.848 16.3396 33.9439 16.3767 34.0648C16.4507 34.3066 16.5605 34.6485 16.7106 35.0755C17.0107 35.9291 17.4731 37.1266 18.1353 38.548C19.457 41.3853 21.5904 45.149 24.8451 48.8539L28.5904 45.5637Z" fill="#0A0B1E"/>
<path d="M46.3911 43.4682L45.9126 41.0219L41.02 41.9791L41.4986 44.4254L46.3911 43.4682ZM33.2817 66.273L31.3928 67.8995L34.6458 71.6772L36.5347 70.0507L33.2817 66.273ZM43.9449 43.9468C41.4986 44.4254 41.4985 44.4246 41.4983 44.4239C41.4983 44.4237 41.4982 44.423 41.4981 44.4226C41.4979 44.4217 41.4978 44.421 41.4976 44.4203C41.4974 44.419 41.4972 44.418 41.4971 44.4174C41.4968 44.4161 41.4969 44.4163 41.4972 44.4178C41.4977 44.4209 41.4993 44.4296 41.5018 44.4437C41.5067 44.472 41.5151 44.5219 41.5257 44.5923C41.5471 44.733 41.5775 44.9552 41.6075 45.2491C41.6677 45.8376 41.7261 46.709 41.709 47.7873C41.6748 49.95 41.3379 52.9016 40.1374 56.0636L44.798 57.8331C46.251 54.0062 46.6527 50.457 46.6937 47.8661C46.7142 46.5676 46.6444 45.4991 46.5669 44.7418C46.5282 44.3628 46.4874 44.0606 46.4548 43.8453C46.4384 43.7376 46.4241 43.6515 46.4131 43.5883C46.4076 43.5566 46.4029 43.5307 46.3992 43.5107C46.3973 43.5006 46.3957 43.4921 46.3944 43.485C46.3937 43.4814 46.3931 43.4783 46.3926 43.4755C46.3923 43.4741 46.392 43.4728 46.3918 43.4715C46.3917 43.4709 46.3915 43.4701 46.3915 43.4698C46.3913 43.469 46.3911 43.4682 43.9449 43.9468ZM40.1374 56.0636C38.929 59.2461 37.197 61.8224 35.7535 63.61C35.035 64.4999 34.397 65.1832 33.9469 65.6368C33.7222 65.8632 33.5452 66.0315 33.4295 66.1387C33.3718 66.1923 33.3294 66.2305 33.3042 66.253C33.2915 66.2643 33.2832 66.2716 33.2794 66.2749C33.2775 66.2766 33.2767 66.2773 33.2771 66.277C33.2773 66.2768 33.2777 66.2764 33.2785 66.2757C33.2789 66.2754 33.2793 66.275 33.2799 66.2746C33.2801 66.2743 33.2806 66.2739 33.2807 66.2738C33.2812 66.2734 33.2817 66.273 34.9082 68.1618C36.5347 70.0507 36.5352 70.0502 36.5357 70.0498C36.536 70.0496 36.5365 70.0491 36.5369 70.0488C36.5378 70.048 36.5387 70.0473 36.5396 70.0464C36.5416 70.0447 36.5439 70.0428 36.5464 70.0405C36.5515 70.0361 36.5578 70.0306 36.5653 70.0241C36.5802 70.011 36.5997 69.9938 36.6237 69.9724C36.6716 69.9296 36.7372 69.8703 36.8188 69.7947C36.9818 69.6435 37.2088 69.4271 37.4855 69.1483C38.0382 68.5914 38.7926 67.7817 39.6322 66.7419C41.3052 64.67 43.3529 61.6394 44.798 57.8331L40.1374 56.0636Z" fill="#0A0B1E"/>
<path d="M42.4563 41.9338L40.4555 43.4204L43.4286 47.4221L45.4294 45.9355L42.4563 41.9338ZM68.7195 41.3772L71.0943 42.1344L72.6087 37.3847L70.2338 36.6275L68.7195 41.3772ZM43.9429 43.9347C45.4294 45.9355 45.429 45.9359 45.4285 45.9362C45.4284 45.9363 45.428 45.9366 45.4277 45.9368C45.4272 45.9372 45.4268 45.9375 45.4265 45.9377C45.4258 45.9382 45.4254 45.9385 45.4254 45.9385C45.4252 45.9386 45.4264 45.9378 45.4287 45.9361C45.4333 45.9327 45.4429 45.9258 45.4572 45.9155C45.4858 45.8949 45.5335 45.861 45.5995 45.8153C45.7316 45.7237 45.9368 45.585 46.2092 45.411C46.7547 45.0625 47.5657 44.5751 48.5957 44.0428C50.6643 42.9737 53.568 41.7484 56.9428 41.0828L55.9782 36.1917C52.0185 36.9727 48.6634 38.3961 46.3068 39.614C45.1242 40.2252 44.1811 40.7909 43.5254 41.2097C43.1973 41.4194 42.9403 41.5928 42.7603 41.7175C42.6703 41.7798 42.5995 41.8301 42.5486 41.8666C42.5231 41.8849 42.5026 41.8998 42.4872 41.9111C42.4795 41.9167 42.4731 41.9214 42.4679 41.9252C42.4654 41.9271 42.4631 41.9288 42.4612 41.9302C42.4602 41.9309 42.4593 41.9316 42.4585 41.9322C42.4581 41.9325 42.4575 41.9329 42.4573 41.933C42.4568 41.9334 42.4563 41.9338 43.9429 43.9347ZM56.9428 41.0828C60.3004 40.4206 63.287 40.5037 65.4308 40.7533C66.5 40.8778 67.3506 41.0426 67.9214 41.1724C68.2065 41.2373 68.4208 41.2932 68.5566 41.3306C68.6245 41.3493 68.6727 41.3633 68.7002 41.3715C68.7139 41.3756 68.7225 41.3782 68.7257 41.3792C68.7274 41.3797 68.7277 41.3798 68.7266 41.3795C68.7261 41.3793 68.7253 41.379 68.7241 41.3787C68.7235 41.3785 68.7228 41.3783 68.722 41.378C68.7216 41.3779 68.721 41.3777 68.7208 41.3776C68.7201 41.3774 68.7195 41.3772 69.4767 39.0023C70.2338 36.6275 70.2331 36.6273 70.2324 36.627C70.2321 36.6269 70.2313 36.6267 70.2308 36.6265C70.2297 36.6262 70.2285 36.6258 70.2272 36.6254C70.2246 36.6246 70.2217 36.6236 70.2184 36.6226C70.2118 36.6206 70.2039 36.6181 70.1945 36.6152C70.1758 36.6094 70.1516 36.6021 70.1219 36.5932C70.0626 36.5756 69.9815 36.5521 69.8797 36.5241C69.6762 36.468 69.3893 36.3937 69.0272 36.3113C68.3034 36.1467 67.2752 35.9491 66.0072 35.8015C63.4765 35.5069 59.9549 35.4074 55.9782 36.1917L56.9428 41.0828Z" fill="#0A0B1E"/>
<path d="M32.0668 31.8353L30.0886 33.3518L33.1217 37.3082L35.0999 35.7917L32.0668 31.8353ZM64.2292 29.0335L66.6733 29.5229L67.652 24.6346L65.2079 24.1453L64.2292 29.0335ZM33.5834 33.8135C35.0999 35.7917 35.0994 35.7921 35.099 35.7924C35.0988 35.7925 35.0984 35.7928 35.0982 35.793C35.0977 35.7934 35.0973 35.7937 35.0969 35.794C35.0963 35.7945 35.096 35.7947 35.0961 35.7946C35.0962 35.7946 35.0977 35.7934 35.1005 35.7912C35.1063 35.7869 35.1176 35.7784 35.1343 35.766C35.1678 35.7412 35.2231 35.7008 35.2994 35.6463C35.4522 35.5374 35.6891 35.3725 36.0052 35.1649C36.6378 34.7493 37.5846 34.1641 38.8047 33.5134C41.2497 32.2094 44.763 30.6581 49.0232 29.6696L47.8964 24.8133C43.1169 25.9223 39.1919 27.6569 36.4587 29.1146C35.0896 29.8447 34.0123 30.5093 33.268 30.9982C32.8956 31.2429 32.606 31.444 32.4042 31.5879C32.3033 31.6599 32.2243 31.7176 32.1679 31.7594C32.1397 31.7803 32.1171 31.7972 32.1002 31.8099C32.0918 31.8163 32.0848 31.8216 32.0792 31.8258C32.0764 31.8279 32.074 31.8298 32.0719 31.8314C32.0709 31.8321 32.0699 31.8329 32.0691 31.8335C32.0687 31.8338 32.0681 31.8343 32.0679 31.8344C32.0673 31.8349 32.0668 31.8353 33.5834 33.8135ZM49.0232 29.6696C53.2834 28.6811 57.1231 28.5265 59.8949 28.6201C61.278 28.6668 62.3869 28.7751 63.1387 28.8695C63.5144 28.9167 63.8001 28.9603 63.9855 28.9909C64.0782 29.0061 64.1457 29.0181 64.1868 29.0256C64.2073 29.0294 64.2212 29.032 64.2284 29.0334C64.2319 29.0341 64.2338 29.0344 64.2339 29.0345C64.234 29.0345 64.2336 29.0344 64.2328 29.0343C64.2325 29.0342 64.2319 29.0341 64.2313 29.034C64.231 29.0339 64.2305 29.0338 64.2303 29.0338C64.2298 29.0336 64.2292 29.0335 64.7185 26.5894C65.2079 24.1453 65.2072 24.1451 65.2066 24.145C65.2063 24.1449 65.2056 24.1448 65.2051 24.1447C65.204 24.1445 65.2028 24.1443 65.2016 24.144C65.199 24.1435 65.196 24.1429 65.1926 24.1422C65.1857 24.1409 65.1771 24.1392 65.1667 24.1372C65.146 24.1332 65.1183 24.128 65.0837 24.1217C65.0146 24.1091 64.9182 24.092 64.7958 24.0719C64.5511 24.0316 64.2023 23.9787 63.7599 23.9231C62.8757 23.8121 61.6148 23.6901 60.0632 23.6377C56.9656 23.533 52.6759 23.7044 47.8964 24.8133L49.0232 29.6696Z" fill="#0A0B1E"/>
<path d="M60.3796 40.6186L59.9836 38.1577L55.0617 38.9497L55.4577 41.4106L60.3796 40.6186ZM46.6338 69.8189L44.9142 71.6234L48.5232 75.0627L50.2428 73.2582L46.6338 69.8189ZM57.9187 41.0146C55.4577 41.4106 55.4576 41.41 55.4575 41.4094C55.4574 41.4092 55.4574 41.4087 55.4573 41.4083C55.4572 41.4077 55.4571 41.4071 55.457 41.4067C55.4569 41.4058 55.4568 41.4053 55.4568 41.4053C55.4568 41.4053 55.4571 41.4071 55.4576 41.4106C55.4587 41.4175 55.4608 41.4314 55.4637 41.452C55.4696 41.4932 55.4789 41.5614 55.4905 41.6551C55.5137 41.8425 55.5458 42.1315 55.577 42.5109C55.6395 43.2703 55.6983 44.3879 55.6761 45.7734C55.6318 48.5506 55.2632 52.3666 53.9734 56.519L58.7344 57.9977C60.1972 53.288 60.6109 48.9821 60.6608 45.8529C60.6858 44.2853 60.6197 43.0036 60.5455 42.102C60.5084 41.651 60.4691 41.2941 60.4381 41.0432C60.4226 40.9177 60.4091 40.8186 60.3989 40.7474C60.3939 40.7118 60.3896 40.6831 60.3863 40.6616C60.3847 40.6509 60.3833 40.6419 60.3822 40.6347C60.3816 40.6311 60.3811 40.628 60.3807 40.6253C60.3805 40.624 60.3803 40.6228 60.3801 40.6216C60.38 40.6211 60.3799 40.6203 60.3799 40.6201C60.3798 40.6193 60.3796 40.6186 57.9187 41.0146ZM53.9734 56.519C52.6837 60.6716 50.825 64.0271 49.2873 66.343C48.5202 67.4984 47.8382 68.3872 47.3562 68.9784C47.1153 69.2738 46.925 69.4941 46.7996 69.6357C46.7369 69.7064 46.6906 69.7574 46.6623 69.7881C46.6482 69.8035 46.6386 69.8138 46.6338 69.8189C46.6314 69.8215 46.6301 69.8228 46.6301 69.8228C46.6301 69.8228 46.6304 69.8225 46.631 69.8219C46.6314 69.8215 46.6317 69.8211 46.6322 69.8206C46.6324 69.8204 46.6328 69.82 46.6329 69.8199C46.6334 69.8194 46.6338 69.8189 48.4383 71.5386C50.2428 73.2582 50.2433 73.2577 50.2438 73.2571C50.244 73.2569 50.2445 73.2564 50.2449 73.256C50.2457 73.2552 50.2465 73.2543 50.2474 73.2533C50.2493 73.2513 50.2515 73.249 50.254 73.2464C50.259 73.2411 50.2652 73.2345 50.2726 73.2266C50.2875 73.2107 50.3072 73.1895 50.3316 73.163C50.3803 73.11 50.4476 73.0359 50.5315 72.9412C50.6992 72.7518 50.9337 72.4797 51.2199 72.1287C51.792 71.4271 52.5728 70.4075 53.4405 69.1006C55.1725 66.492 57.2716 62.7074 58.7344 57.9977L53.9734 56.519Z" fill="#0A0B1E"/>
<path d="M26.753 37.1524C25.9577 37.8096 25.8458 38.987 26.503 39.7822C27.1601 40.5774 28.3375 40.6893 29.1328 40.0322C29.928 39.375 30.0399 38.1976 29.3828 37.4024C28.7256 36.6072 27.5482 36.4952 26.753 37.1524Z" fill="white" stroke="#0A0B1E" stroke-width="0.409399" stroke-miterlimit="10" stroke-dasharray="1.08 1.08"/>
<path d="M27.5462 38.1125C27.2812 38.3315 27.2439 38.724 27.4629 38.9891C27.682 39.2542 28.0744 39.2915 28.3395 39.0724C28.6046 38.8534 28.6419 38.4609 28.4228 38.1958C28.2038 37.9307 27.8113 37.8934 27.5462 38.1125Z" fill="#0A0B1E"/>
</svg>
