<svg width="202" height="112" viewBox="0 0 202 112" fill="none" xmlns="http://www.w3.org/2000/svg">
<rect width="201.051" height="112" transform="translate(0.708984)" fill="white"/>
<path d="M75.9419 52.5378H62.9275C62.174 52.5378 61.6261 53.2912 61.8772 53.999L65.0053 62.1045C65.1423 62.4698 64.8683 62.858 64.4801 62.8351L60.4845 62.584C60.3018 62.5612 60.1191 62.6525 60.0278 62.8123L56.9226 67.219C56.7628 67.4701 56.4203 67.5614 56.1691 67.3788L51.557 64.2508C51.3743 64.1366 51.1232 64.1366 50.9634 64.2508L44.5703 68.5661C44.1593 68.8401 43.6113 68.4519 43.7483 67.9724L45.5293 61.625C45.5978 61.351 45.4836 61.0999 45.2096 60.9857L41.8304 59.6158C41.4879 59.4788 41.3966 59.0678 41.6249 58.7938L44.5931 55.095C44.7301 54.9123 44.753 54.6612 44.616 54.4557L42.1044 50.8253C41.8761 50.4828 42.0816 50.0262 42.5154 50.0034L46.4197 49.7065C46.6937 49.6837 46.922 49.4326 46.922 49.1357L46.6024 43.6788C46.5796 43.2907 46.9677 43.0167 47.3559 43.1537L52.1963 45.1629C52.4018 45.2542 52.653 45.2086 52.79 45.0259L56.1235 41.3042C56.3975 41.0074 56.8769 41.0988 57.0368 41.4412L59.046 46.6013C59.32 47.2407 60.1191 47.469 60.6671 47.0352L68.4986 41.2129C69.3891 40.5508 68.8183 39.1352 67.7223 39.295L62.5622 39.98C62.311 40.0256 62.0827 39.8658 61.9914 39.6375L59.2743 32.6736C58.9775 31.943 58.0414 31.7603 57.4934 32.354L51.6027 38.747C51.4428 38.9068 51.2145 38.9525 51.009 38.8612L43.246 35.5962C42.5611 35.3222 41.7848 35.8016 41.7619 36.5551L41.4879 44.5693C41.4651 44.8433 41.2596 45.0716 40.9856 45.0716L33.9076 45.5282C33.0856 45.5739 32.629 46.51 33.0856 47.195L37.7891 54.136C37.9261 54.3415 37.9033 54.5927 37.7434 54.7982L32.9715 60.2779C32.492 60.8259 32.6975 61.6707 33.3596 61.9675L38.8394 64.3421C39.0905 64.4562 39.2047 64.7074 39.1362 64.9586L35.62 78.658C35.3689 79.6398 36.4648 80.3704 37.2868 79.7996L50.4611 70.347C50.6437 70.2328 50.8949 70.21 51.0775 70.347L57.0824 74.571C57.5847 74.9363 58.2469 74.7765 58.5894 74.297L62.3339 68.5432C62.448 68.3606 62.6535 68.2692 62.8362 68.3149L71.8093 69.388C72.5399 69.5022 73.2706 68.8857 72.9966 68.2236L69.2521 58.5655C69.1379 58.2915 69.2521 58.0175 69.5717 57.8577L76.3986 54.6383C77.4489 54.0904 77.0836 52.5378 75.9419 52.5378Z" fill="#8039E9"/>
<path d="M169.304 52.5374H159.189C158.983 52.5374 158.824 52.6972 158.824 52.9027V57.3779C158.824 57.5834 158.983 57.7432 159.189 57.7432H163.504C163.71 57.7432 163.869 57.903 163.869 58.1085C163.824 60.4146 163.367 64.5472 159.166 64.5472C155.741 64.5472 154.394 60.4146 154.394 55.597C154.394 49.866 155.81 46.327 158.983 46.327C161.289 46.327 162.043 48.2678 162.248 48.9984C162.294 49.1582 162.454 49.2724 162.614 49.2724H167.865C168.071 49.2724 168.253 49.0897 168.23 48.8842C168.025 46.0074 165.559 40.9843 159.075 40.9843C154.531 40.9843 150.284 43.747 148.937 50.5738V41.7834C148.937 41.6692 148.846 41.6007 148.754 41.6007H143.183C143.069 41.6007 143.001 41.6921 143.001 41.7834V57.4692C143.001 57.6747 142.727 57.7204 142.635 57.5377L135.329 41.6921C135.283 41.6236 135.238 41.5779 135.169 41.5779H130.237C130.123 41.5779 130.055 41.6692 130.055 41.7606V50.551C128.228 44.9799 123.274 40.9614 116.835 40.9614C109.643 40.9614 104.323 45.9389 103.09 52.5374H93.0207C92.9065 52.5374 92.838 52.6288 92.838 52.7201V57.5605C92.838 57.6747 92.9294 57.7432 93.0207 57.7432H97.7242C97.8383 57.7432 97.9068 57.8345 97.9068 57.9259C97.884 60.1634 97.4958 64.5472 93.2033 64.5472C89.7785 64.5472 88.4314 60.4146 88.4314 55.597C88.4314 49.866 89.847 46.327 93.0207 46.327C95.4638 46.327 96.1716 48.5418 96.3314 49.1354C96.3542 49.2267 96.4227 49.2724 96.514 49.2724H102.154C102.268 49.2724 102.359 49.1811 102.336 49.0669C102.222 46.2357 99.8019 40.9843 93.1577 40.9843C87.6551 40.9843 82.5635 45.0484 82.5635 55.5513C82.5635 62.7663 85.3947 69.9128 93.249 69.9128C99.0484 69.9128 102.77 65.4149 103.592 60.0036C105.35 65.7574 110.35 69.9128 116.926 69.9128C123.274 69.9128 128.32 65.8944 130.146 60.2776V69.1594C130.146 69.2735 130.237 69.342 130.329 69.342H135.9C136.014 69.342 136.083 69.2507 136.083 69.1594V53.7247C136.083 53.5192 136.356 53.4736 136.448 53.6562L143.754 69.2507C143.8 69.3192 143.846 69.3649 143.914 69.3649H148.846C148.96 69.3649 149.028 69.2735 149.028 69.1822V60.3689C150.102 65.666 153.161 69.9585 159.234 69.9585C165.856 69.9585 169.76 64.1363 169.76 57.766V52.9941C169.669 52.6972 169.509 52.5374 169.304 52.5374ZM116.88 64.1363C112.2 64.1363 108.958 60.5516 108.958 55.46C108.958 50.3684 112.2 46.7837 116.88 46.7837C121.538 46.7837 124.803 50.3684 124.803 55.46C124.803 60.5516 121.538 64.1363 116.88 64.1363Z" fill="#3E0075"/>
</svg>
