<svg width="40" height="40" viewBox="0 0 40 40" fill="none" xmlns="http://www.w3.org/2000/svg">
<path d="M38.3326 23.3332C38.2836 22.7109 38.2285 22.1588 38.1722 21.6748C37.9782 20.0083 36.7257 18.7552 35.0592 18.5612C34.1648 18.4571 33.0378 18.3574 31.666 18.292" stroke="#0A0B1E" stroke-width="2" stroke-linecap="round"/>
<path d="M1.66742 23.3332C1.71642 22.7109 1.77145 22.1588 1.8278 21.6748C2.02181 20.0083 3.27431 18.7552 4.94082 18.5612C5.83515 18.4571 6.96216 18.3574 8.33398 18.292" stroke="#0A0B1E" stroke-width="2" stroke-linecap="round"/>
<path d="M5.83398 34.1667C5.90375 33.2809 5.98209 32.4949 6.0623 31.8058C6.3385 29.4333 8.12096 27.6496 10.4934 27.3733C12.692 27.1173 15.8786 26.8804 20.1422 26.8804C24.4057 26.8804 27.5923 27.1173 29.7909 27.3733C32.1634 27.6496 33.9458 29.4333 34.222 31.8058C34.3022 32.4949 34.3806 33.2809 34.4503 34.1667" stroke="#0A0B1E" stroke-width="2" stroke-linecap="round"/>
<ellipse cx="20.141" cy="15.951" rx="7.61752" ry="7.61752" fill="white" stroke="#0A0B1E" stroke-width="2"/>
<path d="M16.8965 9.05764L17.3232 9.96207L18.0733 9.60824L17.8643 8.80563L16.8965 9.05764ZM12.529 15.6997L12.6794 16.6884L13.5016 16.5634L13.5285 15.7321L12.529 15.6997ZM5.36719 10.4099C5.36719 13.9174 8.21056 16.7608 11.718 16.7608V14.7608C9.31513 14.7608 7.36719 12.8128 7.36719 10.4099H5.36719ZM11.718 4.05908C8.21056 4.05908 5.36719 6.90246 5.36719 10.4099H7.36719C7.36719 8.00703 9.31513 6.05908 11.718 6.05908V4.05908ZM17.8643 8.80563C17.1533 6.07551 14.6724 4.05908 11.718 4.05908V6.05908C13.7397 6.05908 15.4416 7.43886 15.9288 9.30964L17.8643 8.80563ZM13.5285 15.7321C13.6112 13.1813 15.1384 10.9926 17.3232 9.96207L16.4699 8.15321C13.63 9.49284 11.6374 12.3404 11.5296 15.6673L13.5285 15.7321ZM11.718 16.7608C12.0442 16.7608 12.3653 16.7361 12.6794 16.6884L12.3787 14.7111C12.1638 14.7438 11.9433 14.7608 11.718 14.7608V16.7608Z" fill="#0A0B1E"/>
<path d="M23.1348 8.94371L22.1729 8.67024L21.9321 9.51703L22.7416 9.86317L23.1348 8.94371ZM27.7567 15.7353L26.7571 15.7631L26.7816 16.645L27.6597 16.7306L27.7567 15.7353ZM32.6331 10.4099C32.6331 12.8128 30.6852 14.7608 28.2822 14.7608V16.7608C31.7897 16.7608 34.6331 13.9174 34.6331 10.4099H32.6331ZM28.2822 6.05908C30.6852 6.05908 32.6331 8.00703 32.6331 10.4099H34.6331C34.6331 6.90246 31.7897 4.05908 28.2822 4.05908V6.05908ZM24.0966 9.21717C24.6152 7.39332 26.2942 6.05908 28.2822 6.05908V4.05908C25.3768 4.05908 22.9294 6.00935 22.1729 8.67024L24.0966 9.21717ZM22.7416 9.86317C25.0517 10.851 26.6835 13.1139 26.7571 15.7631L28.7563 15.7075C28.6603 12.2525 26.5319 9.3088 23.5279 8.02425L22.7416 9.86317ZM28.2822 14.7608C28.1374 14.7608 27.9944 14.7537 27.8537 14.74L27.6597 16.7306C27.8648 16.7506 28.0725 16.7608 28.2822 16.7608V14.7608Z" fill="#0A0B1E"/>
</svg>
