<svg width="230" height="112" viewBox="0 0 230 112" fill="none" xmlns="http://www.w3.org/2000/svg">
<rect width="228.938" height="112" transform="translate(0.771484)" fill="white"/>
<g clip-path="url(#clip0_456_125255)">
<path d="M82.8633 57.1052H89.0303V54.0799H82.8633V49.251H89.4957V46.1094H78.6162V65.8902H89.6121V62.9231H82.8633V57.1052Z" fill="#0A0B1E"/>
<path d="M71.2859 46.1094H63.7227V65.8902H67.9697V57.8615H70.9369C74.6021 57.8615 76.4639 55.9416 76.4639 52.0436C76.4639 48.0875 74.7185 46.1094 71.2859 46.1094ZM70.1805 54.8944H67.9697V49.251H70.006C71.4605 49.251 72.2168 50.2401 72.2168 52.2182C72.2168 54.0217 71.5186 54.8944 70.1805 54.8944Z" fill="#0A0B1E"/>
<path d="M100.608 56.1158C103.11 55.7085 104.39 54.0795 104.39 51.2287C104.39 47.7962 102.819 46.0508 99.6775 46.0508H92.1143V65.8316H96.1868V57.6866H97.2922C99.1539 57.6866 100.143 58.6756 100.259 60.6537C100.376 63.7954 100.492 65.5408 100.55 65.8316H104.623C104.332 65.1917 104.157 63.2718 104.157 60.0137C104.274 57.7448 103.052 56.4648 100.608 56.1158ZM98.1067 54.7195H96.245V49.2506H98.1067C99.4448 49.2506 100.143 50.0651 100.143 51.7523C100.143 53.7304 99.503 54.7195 98.1067 54.7195Z" fill="#0A0B1E"/>
<path d="M54.7637 54.429L51.7966 46.1094H47.375L52.5529 58.9669V65.8902H56.6836V58.9669L62.1525 46.1094H57.9054L54.7637 54.429Z" fill="#0A0B1E"/>
<path d="M153.9 46.1094L148.373 65.8902H152.446L153.551 61.4686H159.194L160.3 65.8902H164.721L159.369 46.1094H153.9ZM154.482 58.5015L156.344 50.0074L158.38 58.5015H154.482Z" fill="#0A0B1E"/>
<path d="M177.462 59.7814L172.226 46.1094H166.583V65.8902H170.539V51.4037L175.892 65.8902H181.36V46.1094H177.462V59.7814Z" fill="#0A0B1E"/>
<path d="M191.425 46.1094H184.502V65.8902H191.251C195.556 65.8902 197.709 62.5159 197.709 55.8253C197.709 49.3092 195.614 46.1094 191.425 46.1094ZM190.611 62.9231H188.574V49.251H190.785C192.647 49.251 193.636 51.52 193.636 55.9998C193.636 60.596 192.647 62.9231 190.611 62.9231Z" fill="#0A0B1E"/>
<path d="M130.222 54.7198C127.429 53.149 126.033 51.8691 126.033 50.8218C126.033 49.4837 126.789 48.7856 128.244 48.7856C129.523 48.7856 130.105 49.7746 130.105 51.7527H134.061C134.352 47.7965 132.491 45.7603 128.418 45.7603C124.113 45.7603 121.96 47.622 121.96 51.4036C121.96 53.4981 123.298 55.3598 126.033 57.047C128.767 58.7342 130.105 60.0141 130.105 61.0032C130.105 62.4576 129.407 63.214 128.069 63.214C126.498 63.214 125.742 62.0504 125.742 59.7814H121.669C121.378 64.0866 123.298 66.2393 127.487 66.2393C132.083 66.2393 134.411 64.3775 134.411 60.5959C134.411 58.2106 133.014 56.2907 130.222 54.7198Z" fill="#0A0B1E"/>
<path d="M140.985 46.1094H136.912V65.8902H147.268V62.574H140.985V46.1094Z" fill="#0A0B1E"/>
<path d="M119.167 46.1094H115.095V65.8902H119.167V46.1094Z" fill="#0A0B1E"/>
<path d="M41.5565 54.0799H36.844V46.1094H32.7715V65.8902H36.844V57.1052H41.5565V65.8902H45.6872V46.1094H41.5565V54.0799Z" fill="#0A0B1E"/>
</g>
<defs>
<clipPath id="clip0_456_125255">
<rect width="164.938" height="20.479" fill="white" transform="translate(32.7715 45.7603)"/>
</clipPath>
</defs>
</svg>
