<svg width="40" height="40" viewBox="0 0 40 40" fill="none" xmlns="http://www.w3.org/2000/svg">
<path d="M33.406 18.0196C32.195 17.8678 27.9426 17.7698 25.4547 17.7255C24.4652 17.7079 23.6981 16.849 23.8429 15.87C24.0624 14.3854 24.3824 12.5793 24.7023 10.5211C25.0132 8.16442 25.324 5.05791 25.1686 3.34397C25.0132 1.73715 23.1481 1.09442 22.0601 2.27276L5.58526 18.7694C4.4973 19.9477 4.96357 21.7688 6.67322 21.983C7.88425 22.1348 12.1366 22.2328 14.6246 22.2771C15.6141 22.2947 16.3794 23.1528 16.2521 24.1342C16.0046 26.0426 15.6453 28.4694 15.5323 29.4815C15.3769 31.0883 14.7552 34.9447 14.9107 36.6586C15.0661 38.2655 16.9312 38.9082 18.0191 37.7298L34.3386 21.2332C35.5819 20.0549 34.9603 18.2338 33.406 18.0196Z" stroke="#0A0B1E" stroke-width="2"/>
</svg>
