<svg width="40" height="40" viewBox="0 0 40 40" fill="none" xmlns="http://www.w3.org/2000/svg">
<path d="M7.41426 9.03628C7.66647 6.08887 9.73632 3.75546 12.6732 3.4009C14.5271 3.17707 16.9558 3 20 3C23.0442 3 25.4729 3.17707 27.3268 3.4009C30.2637 3.75546 32.3335 6.08887 32.5857 9.03628C32.8041 11.5883 33 15.212 33 20C33 24.788 32.8041 28.4117 32.5857 30.9637C32.3335 33.9111 30.2637 36.2445 27.3268 36.5991C25.4729 36.8229 23.0442 37 20 37C16.9558 37 14.5271 36.8229 12.6732 36.5991C9.73632 36.2445 7.66647 33.9111 7.41426 30.9637C7.19588 28.4117 7 24.788 7 20C7 15.212 7.19588 11.5883 7.41426 9.03628Z" stroke="#0A0B1E" stroke-width="2"/>
<rect x="18" y="28" width="4" height="4" rx="2" fill="#0A0B1E"/>
<rect x="15" y="8" width="10" height="2" rx="1" fill="#0A0B1E"/>
</svg>
