<svg width="199" height="112" viewBox="0 0 199 112" fill="none" xmlns="http://www.w3.org/2000/svg">
<rect width="198.062" height="112" transform="translate(0.595703)" fill="white"/>
<g clip-path="url(#clip0_456_125323)">
<path d="M106.136 52.7803C108.736 52.7803 110.843 54.8876 110.843 57.487V63.9196C110.843 64.093 110.703 64.2334 110.529 64.2334H109.274C109.101 64.2334 108.96 64.093 108.96 63.9196V57.487C108.96 55.9274 107.696 54.663 106.136 54.663C104.577 54.663 103.313 55.9274 103.313 57.487V63.9196C103.313 64.093 103.172 64.2334 102.999 64.2334H101.744C101.57 64.2334 101.43 64.093 101.43 63.9196V57.487C101.43 54.8876 103.537 52.7803 106.136 52.7803Z" fill="#0A0B1E"/>
<path d="M101.744 52.7803H102.999C103.172 52.7803 103.313 52.9208 103.313 53.0941V63.292C103.313 63.4654 103.172 63.6058 102.999 63.6058H101.744C101.57 63.6058 101.43 63.4654 101.43 63.292V53.0941C101.43 52.9208 101.57 52.7803 101.744 52.7803Z" fill="#0A0B1E"/>
<path d="M121.825 64.2339C126.451 64.2339 130.14 60.5461 130.14 55.997C130.14 51.448 126.451 47.7603 121.825 47.7603C121.411 47.7603 120.731 47.7603 119.783 47.7603V49.7998H121.825C125.413 49.7998 128.257 52.6443 128.257 56.1539C128.257 59.6636 125.413 62.3512 121.825 62.3512C121.401 62.3512 120.721 62.3512 119.783 62.3512V64.2339H121.825Z" fill="#0A0B1E"/>
<path d="M118.374 47.7603H119.943V64.2339H118.374C118.201 64.2339 118.061 64.0934 118.061 63.92V48.074C118.061 47.9007 118.201 47.7603 118.374 47.7603Z" fill="#0A0B1E"/>
<path fill-rule="evenodd" clip-rule="evenodd" d="M82.4453 55.997C82.4453 51.448 86.1331 47.7603 90.6821 47.7603C95.2309 47.7603 98.9191 51.448 98.9191 55.997C98.9191 60.5461 95.2309 64.2339 90.6821 64.2339C86.1331 64.2339 82.4453 60.5461 82.4453 55.997ZM90.6821 49.643C87.1729 49.643 84.328 52.4878 84.328 55.997C84.328 59.5063 87.1729 62.3512 90.6821 62.3512C94.1913 62.3512 97.0362 59.5063 97.0362 55.997C97.0362 52.4878 94.1913 49.643 90.6821 49.643Z" fill="#0A0B1E"/>
<path d="M158.945 56.7683L162.619 53.1839C162.678 53.1268 162.756 53.0948 162.838 53.0948H164.842C164.929 53.0948 164.999 53.165 164.999 53.2517C164.999 53.2933 164.983 53.3332 164.953 53.3626L160.907 57.4093L166.267 63.9774C166.321 64.0445 166.311 64.1434 166.245 64.1982C166.216 64.2211 166.181 64.2335 166.145 64.2335L164.27 64.2303C164.176 64.2301 164.088 64.1886 164.029 64.1169L159.573 58.7428L158.945 59.3704V63.9164C158.945 64.0896 158.805 64.2301 158.632 64.2301H157.376C157.203 64.2301 157.062 64.0896 157.062 63.9164V48.8587C157.062 48.6854 157.203 48.5449 157.376 48.5449H158.632C158.805 48.5449 158.945 48.6854 158.945 48.8587V56.7683Z" fill="#0A0B1E"/>
<path d="M154.381 54.5182L154.321 54.4532C153.326 53.4194 151.953 52.7803 150.436 52.7803C148.878 52.7803 147.471 53.4135 146.47 54.4783C145.512 55.5021 144.936 56.9146 144.936 58.5068C144.936 61.8264 147.398 64.2334 150.436 64.2334C151.947 64.2334 153.315 63.5992 154.309 62.5727L154.305 62.5686L154.374 62.4957C154.49 62.3735 154.488 62.1819 154.371 62.0614L153.496 61.162C153.379 61.0409 153.187 61.036 153.063 61.1491C152.396 61.8945 151.454 62.3507 150.436 62.3507C148.424 62.3507 146.818 60.7728 146.818 58.5068C146.818 56.2408 148.424 54.663 150.436 54.663C151.457 54.663 152.401 55.1218 153.069 55.871C153.194 55.9776 153.381 55.9702 153.498 55.8509L154.374 54.9489C154.491 54.8297 154.493 54.6408 154.381 54.5182Z" fill="#0A0B1E"/>
<path d="M132.258 58.5068C132.258 55.2731 134.637 52.7803 137.758 52.7803C140.765 52.7803 143.159 55.2718 143.256 58.3153C143.235 58.4679 143.103 58.5853 142.945 58.5853H135.74C135.567 58.5853 135.426 58.4448 135.426 58.2715V57.487C135.426 57.3137 135.567 57.1732 135.74 57.1732H141.154C140.638 55.6868 139.284 54.663 137.758 54.663C135.747 54.663 134.141 56.2408 134.141 58.5068C134.141 60.7728 135.747 62.3507 137.758 62.3507C138.777 62.3507 139.718 61.8945 140.386 61.1491C140.509 61.036 140.701 61.0409 140.819 61.162L141.694 62.0614C141.811 62.1819 141.812 62.3735 141.697 62.4957L141.628 62.5686L141.632 62.5728C140.642 63.5962 139.279 64.2334 137.758 64.2334C134.637 64.2334 132.258 61.7406 132.258 58.5068Z" fill="#0A0B1E"/>
<path d="M106.136 52.7803C108.736 52.7803 110.843 54.8876 110.843 57.487V63.9196C110.843 64.093 110.703 64.2334 110.529 64.2334H109.274C109.101 64.2334 108.96 64.093 108.96 63.9196V57.487C108.96 55.9274 107.696 54.663 106.136 54.663C104.577 54.663 103.313 55.9274 103.313 57.487V63.9196C103.313 64.093 103.172 64.2334 102.999 64.2334H101.744C101.57 64.2334 101.43 64.093 101.43 63.9196V57.487C101.43 54.8876 103.537 52.7803 106.136 52.7803Z" stroke="#0A0B1E" stroke-width="0.350643" stroke-linejoin="round"/>
<path d="M101.744 52.7803H102.999C103.172 52.7803 103.313 52.9208 103.313 53.0941V63.292C103.313 63.4654 103.172 63.6058 102.999 63.6058H101.744C101.57 63.6058 101.43 63.4654 101.43 63.292V53.0941C101.43 52.9208 101.57 52.7803 101.744 52.7803Z" stroke="#0A0B1E" stroke-width="0.350643" stroke-linejoin="round"/>
<path d="M121.825 64.2339C126.451 64.2339 130.14 60.5461 130.14 55.997C130.14 51.448 126.451 47.7603 121.825 47.7603C121.411 47.7603 120.731 47.7603 119.783 47.7603V49.7998H121.825C125.413 49.7998 128.257 52.6443 128.257 56.1539C128.257 59.6636 125.413 62.3512 121.825 62.3512C121.401 62.3512 120.721 62.3512 119.783 62.3512V64.2339H121.825Z" stroke="#0A0B1E" stroke-width="0.350643" stroke-linejoin="round"/>
<path d="M118.374 47.7603H119.943V64.2339H118.374C118.201 64.2339 118.061 64.0934 118.061 63.92V48.074C118.061 47.9007 118.201 47.7603 118.374 47.7603Z" stroke="#0A0B1E" stroke-width="0.350643" stroke-linejoin="round"/>
<path fill-rule="evenodd" clip-rule="evenodd" d="M82.4453 55.997C82.4453 51.448 86.1331 47.7603 90.6821 47.7603C95.2309 47.7603 98.9191 51.448 98.9191 55.997C98.9191 60.5461 95.2309 64.2339 90.6821 64.2339C86.1331 64.2339 82.4453 60.5461 82.4453 55.997ZM90.6821 49.643C87.1729 49.643 84.328 52.4878 84.328 55.997C84.328 59.5063 87.1729 62.3512 90.6821 62.3512C94.1913 62.3512 97.0362 59.5063 97.0362 55.997C97.0362 52.4878 94.1913 49.643 90.6821 49.643Z" stroke="#0A0B1E" stroke-width="0.350643" stroke-linejoin="round"/>
<path d="M158.945 56.7683L162.619 53.1839C162.678 53.1268 162.756 53.0948 162.838 53.0948H164.842C164.929 53.0948 164.999 53.165 164.999 53.2517C164.999 53.2933 164.983 53.3332 164.953 53.3626L160.907 57.4093L166.267 63.9774C166.321 64.0445 166.311 64.1434 166.245 64.1982C166.216 64.2211 166.181 64.2335 166.145 64.2335L164.27 64.2303C164.176 64.2301 164.088 64.1886 164.029 64.1169L159.573 58.7428L158.945 59.3704V63.9164C158.945 64.0896 158.805 64.2301 158.632 64.2301H157.376C157.203 64.2301 157.062 64.0896 157.062 63.9164V48.8587C157.062 48.6854 157.203 48.5449 157.376 48.5449H158.632C158.805 48.5449 158.945 48.6854 158.945 48.8587V56.7683Z" stroke="#0A0B1E" stroke-width="0.350643" stroke-linejoin="round"/>
<path d="M154.381 54.5182L154.321 54.4532C153.326 53.4194 151.953 52.7803 150.436 52.7803C148.878 52.7803 147.471 53.4135 146.47 54.4783C145.512 55.5021 144.936 56.9146 144.936 58.5068C144.936 61.8264 147.398 64.2334 150.436 64.2334C151.947 64.2334 153.315 63.5992 154.309 62.5727L154.305 62.5686L154.374 62.4957C154.49 62.3735 154.488 62.1819 154.371 62.0614L153.496 61.162C153.379 61.0409 153.187 61.036 153.063 61.1491C152.396 61.8945 151.454 62.3507 150.436 62.3507C148.424 62.3507 146.818 60.7728 146.818 58.5068C146.818 56.2408 148.424 54.663 150.436 54.663C151.457 54.663 152.401 55.1218 153.069 55.871C153.194 55.9776 153.381 55.9702 153.498 55.8509L154.374 54.9489C154.491 54.8297 154.493 54.6408 154.381 54.5182Z" stroke="#0A0B1E" stroke-width="0.350643" stroke-linejoin="round"/>
<path d="M132.258 58.5068C132.258 55.2731 134.637 52.7803 137.758 52.7803C140.765 52.7803 143.159 55.2718 143.256 58.3153C143.235 58.4679 143.103 58.5853 142.945 58.5853H135.74C135.567 58.5853 135.426 58.4448 135.426 58.2715V57.487C135.426 57.3137 135.567 57.1732 135.74 57.1732H141.154C140.638 55.6868 139.284 54.663 137.758 54.663C135.747 54.663 134.141 56.2408 134.141 58.5068C134.141 60.7728 135.747 62.3507 137.758 62.3507C138.777 62.3507 139.718 61.8945 140.386 61.1491C140.509 61.036 140.701 61.0409 140.819 61.162L141.694 62.0614C141.811 62.1819 141.812 62.3735 141.697 62.4957L141.628 62.5686L141.632 62.5728C140.642 63.5962 139.279 64.2334 137.758 64.2334C134.637 64.2334 132.258 61.7406 132.258 58.5068Z" stroke="#0A0B1E" stroke-width="0.350643" stroke-linejoin="round"/>
<path fill-rule="evenodd" clip-rule="evenodd" d="M62.81 45.4673H67.3279C67.7361 45.4673 68.0671 45.7982 68.0671 46.2064V48.0543C68.0671 48.4625 67.7361 48.7934 67.3279 48.7934H65.2972C64.624 47.5703 63.7848 46.4515 62.81 45.4673ZM59.8571 48.7934H52.1757C51.7675 48.7934 51.4366 48.4625 51.4366 48.0543V46.2064C51.4366 45.7982 51.7675 45.4673 52.1757 45.4673C55.205 45.4673 57.9356 46.7461 59.8571 48.7934ZM59.8571 63.2065C57.9356 65.2538 55.205 66.5326 52.1757 66.5326C51.7675 66.5326 51.4366 66.2017 51.4366 65.7935V63.9456C51.4366 63.5374 51.7675 63.2065 52.1757 63.2065H59.8571ZM65.2972 63.2065H67.3279C67.7361 63.2065 68.0671 63.5374 68.0671 63.9456V65.7935C68.0671 66.2017 67.7361 66.5326 67.3279 66.5326H62.81C63.7848 65.5484 64.624 64.4296 65.2972 63.2065ZM62.3398 58.7717C62.0109 59.9808 61.472 61.1033 60.7647 62.0978H52.1757C51.7675 62.0978 51.4366 61.7669 51.4366 61.3587V59.5108C51.4366 59.1026 51.7675 58.7717 52.1757 58.7717H62.3398ZM66.887 58.7717H67.3279C67.7361 58.7717 68.0671 59.1026 68.0671 59.5108V61.3587C68.0671 61.7669 67.7361 62.0978 67.3279 62.0978H65.8487C66.3179 61.0475 66.6695 59.9332 66.887 58.7717ZM62.5778 54.3369C62.6637 54.8786 62.7084 55.4341 62.7084 56C62.7084 56.5658 62.6637 57.1213 62.5778 57.663H52.1757C51.7675 57.663 51.4366 57.3321 51.4366 56.9239V55.0761C51.4366 54.6678 51.7675 54.3369 52.1757 54.3369H62.5778ZM67.0518 54.3369H67.3279C67.7361 54.3369 68.0671 54.6678 68.0671 55.0761V56.9239C68.0671 57.3321 67.7361 57.663 67.3279 57.663H67.0518C67.1121 57.117 67.1431 56.5621 67.1431 56C67.1431 55.4378 67.1121 54.8829 67.0518 54.3369ZM60.7647 49.9021C61.472 50.8966 62.0109 52.0191 62.3398 53.2282H52.1141C51.7059 53.2282 51.375 52.8973 51.375 52.4891V50.6413C51.375 50.233 51.7059 49.9021 52.1141 49.9021H60.7647ZM65.8487 49.9021H67.2663C67.6745 49.9021 68.0055 50.233 68.0055 50.6413V52.4891C68.0055 52.8973 67.6745 53.2282 67.2663 53.2282H66.887C66.6695 52.0667 66.3179 50.9524 65.8487 49.9021Z" fill="#0A0B1E"/>
<path fill-rule="evenodd" clip-rule="evenodd" d="M52.1151 75.4026C41.3995 75.4026 32.7129 66.716 32.7129 56.0004C32.7129 45.2848 41.3995 36.5981 52.1151 36.5981C62.8307 36.5981 71.5174 45.2848 71.5174 56.0004C71.5174 66.716 62.8307 75.4026 52.1151 75.4026ZM52.1151 70.9678C60.3814 70.9678 67.0826 64.2667 67.0826 56.0004C67.0826 47.7341 60.3814 41.0329 52.1151 41.0329C43.8488 41.0329 37.1477 47.7341 37.1477 56.0004C37.1477 64.2667 43.8488 70.9678 52.1151 70.9678Z" fill="#0A0B1E"/>
</g>
<defs>
<clipPath id="clip0_456_125323">
<rect width="134.062" height="39.1551" fill="white" transform="translate(32.5957 36.4224)"/>
</clipPath>
</defs>
</svg>
