<svg width="40" height="40" viewBox="0 0 40 40" fill="none" xmlns="http://www.w3.org/2000/svg">
<path d="M34.9394 10.0005L14.9395 10.0005" stroke="#0A0B1E" stroke-width="2" stroke-linecap="round"/>
<path d="M34.9394 20.0005L14.9395 20.0005" stroke="#0A0B1E" stroke-width="2" stroke-linecap="round"/>
<path d="M34.9394 30.0005L14.9395 30.0005" stroke="#0A0B1E" stroke-width="2" stroke-linecap="round"/>
<path d="M6.46484 8.51221H8.2433V17.0869H6.99838V9.75713H6.46484V8.51221Z" fill="#0A0B1E"/>
<path d="M5.04492 32.3307V31.4161L8.00478 28.0624C8.41976 27.5966 8.7077 27.2113 8.86861 26.9064C9.03798 26.6015 9.12267 26.3051 9.12267 26.0172C9.12267 25.6276 8.99987 25.3185 8.75428 25.0898C8.51715 24.8527 8.1911 24.7341 7.77612 24.7341C7.33574 24.7341 6.98429 24.8612 6.72175 25.1152C6.45922 25.3608 6.32372 25.7038 6.31525 26.1442H5.07033C5.08727 25.3481 5.34133 24.7214 5.83252 24.2641C6.33219 23.7983 6.99699 23.5654 7.82694 23.5654C8.63148 23.5654 9.26241 23.7772 9.71972 24.2006C10.1855 24.624 10.4184 25.2084 10.4184 25.9536C10.4184 26.394 10.3125 26.8259 10.1008 27.2494C9.89757 27.6728 9.54611 28.1598 9.04645 28.7103L6.86149 31.1366H10.4057V32.3307H5.04492Z" fill="#0A0B1E"/>
</svg>
