<svg width="40" height="40" viewBox="0 0 40 40" fill="none" xmlns="http://www.w3.org/2000/svg">
<path d="M2.69237 23.8022C2.75608 22.9135 3.32183 22.1467 4.18567 21.9283C4.86118 21.7575 5.73164 21.6025 6.66667 21.6025C7.60169 21.6025 8.47215 21.7575 9.14766 21.9283C10.0115 22.1467 10.5773 22.9135 10.641 23.8022C10.7302 25.0475 10.8333 27.0998 10.8333 29.9359C10.8333 32.7719 10.7302 34.8243 10.641 36.0695C10.5773 36.9583 10.0115 37.725 9.14766 37.9434C8.47215 38.1143 7.60169 38.2692 6.66667 38.2692C5.73164 38.2692 4.86118 38.1143 4.18568 37.9434C3.32183 37.725 2.75608 36.9583 2.69237 36.0695C2.60312 34.8243 2.5 32.7719 2.5 29.9359C2.5 27.0998 2.60312 25.0475 2.69237 23.8022Z" stroke="#0A0B1E" stroke-width="2"/>
<path d="M16.0862 3.98568C16.123 3.03251 16.7075 2.18811 17.6347 1.9638C18.2926 1.80462 19.1179 1.6665 20.0007 1.6665C20.8834 1.6665 21.7087 1.80462 22.3666 1.9638C23.2938 2.18811 23.8783 3.03251 23.9151 3.98568C24.0092 6.42444 24.1673 11.7411 24.1673 19.9357C24.1673 28.1444 24.0086 33.497 23.9146 35.9488C23.878 36.9026 23.2933 37.7477 22.3656 37.972C21.7078 38.1311 20.883 38.2691 20.0007 38.2691C19.1183 38.2691 18.2935 38.1311 17.6357 37.972C16.708 37.7477 16.1233 36.9026 16.0867 35.9488C15.9927 33.497 15.834 28.1444 15.834 19.9357C15.834 11.7411 15.9921 6.42444 16.0862 3.98568Z" stroke="#0A0B1E" stroke-width="2"/>
<path d="M29.4123 12.3231C29.4539 11.3701 30.0396 10.5216 30.9667 10.2973C31.6247 10.1381 32.4499 10 33.3327 10C34.2103 10 35.031 10.1365 35.687 10.2945C36.6205 10.5193 37.2077 11.3729 37.2467 12.3322C37.3407 14.6496 37.4993 19.1656 37.4993 23.2692C37.4993 27.5489 37.3268 33.2086 37.2349 35.92C37.2021 36.8885 36.6126 37.7533 35.6701 37.9788C35.0169 38.1351 34.2027 38.2692 33.3327 38.2692C32.4594 38.2692 31.6425 38.1341 30.988 37.9771C30.0494 37.7519 29.4608 36.8895 29.4259 35.9248C29.333 33.3593 29.166 28.0806 29.166 23.2692C29.166 18.6841 29.3176 14.4932 29.4123 12.3231Z" stroke="#0A0B1E" stroke-width="2"/>
</svg>
