<svg width="40" height="40" viewBox="0 0 40 40" fill="none" xmlns="http://www.w3.org/2000/svg">
<circle cx="20.0013" cy="20.0013" r="18.3333" stroke="#0A0B1E" stroke-width="2"/>
<path d="M12.6412 26.0902L9.20747 21.192H8.14704V26.0902H6.39648V14.3077H10.4194C11.1151 14.3077 11.7323 14.4479 12.2709 14.7285C12.8208 15.009 13.2472 15.413 13.5502 15.9404C13.8644 16.4566 14.0215 17.0681 14.0215 17.7751C14.0215 18.6616 13.769 19.4022 13.264 19.997C12.7703 20.5917 12.1082 20.9676 11.2778 21.1247L14.8463 26.0902H12.6412ZM8.14704 15.9572V19.5425H10.1332C10.8065 19.5425 11.3059 19.3854 11.6313 19.0712C11.968 18.7458 12.1363 18.3137 12.1363 17.7751C12.1363 17.2252 11.968 16.7876 11.6313 16.4622C11.3059 16.1255 10.8065 15.9572 10.1332 15.9572H8.14704Z" fill="#0A0B1E"/>
<path d="M17.9439 20.4009V24.4407H23.0104V26.0902H16.1934V14.3077H22.9263V15.9572H17.9439V18.7514H22.5391V20.4009H17.9439Z" fill="#0A0B1E"/>
<path d="M30.4968 26.3427C29.2625 26.3427 28.1684 26.0846 27.2145 25.5684C26.2607 25.0522 25.5145 24.3341 24.9759 23.4139C24.4485 22.4825 24.1847 21.4109 24.1847 20.1989C24.1847 18.987 24.4485 17.921 24.9759 17.0008C25.5145 16.0694 26.2607 15.3456 27.2145 14.8295C28.1684 14.3133 29.2625 14.0552 30.4968 14.0552C32.0678 14.0552 33.4537 14.4872 34.6544 15.3513L33.5771 16.883C32.6233 16.1873 31.5741 15.8394 30.4295 15.8394C29.6103 15.8394 28.8697 16.0189 28.2077 16.378C27.5568 16.7371 27.0406 17.2477 26.6591 17.9098C26.2888 18.5718 26.1036 19.3349 26.1036 20.1989C26.1036 21.063 26.2888 21.8261 26.6591 22.4881C27.0406 23.1502 27.5568 23.6608 28.2077 24.0199C28.8697 24.379 29.6103 24.5585 30.4295 24.5585C31.5741 24.5585 32.6233 24.2106 33.5771 23.5149L34.6544 25.0466C33.4537 25.9107 32.0678 26.3427 30.4968 26.3427Z" fill="#0A0B1E"/>
</svg>
