<svg width="40" height="40" viewBox="0 0 40 40" fill="none" xmlns="http://www.w3.org/2000/svg">
<path d="M5.89874 29.7636C5.73658 29.747 5.58142 29.7306 5.43325 29.7145C3.97308 29.5561 2.78277 28.549 2.49315 27.109C2.1055 25.1818 1.66797 22.0428 1.66797 17.6923C1.66797 14.8706 1.85202 12.5586 2.08714 10.7563C2.47831 7.75785 4.92189 5.67804 7.93606 5.43586C10.7421 5.2104 14.7639 5 20.0013 5C25.2387 5 29.2605 5.2104 32.0665 5.43586C35.0807 5.67804 37.5243 7.75785 37.9155 10.7563C38.1506 12.5586 38.3346 14.8706 38.3346 17.6923C38.3346 22.0428 37.8971 25.1818 37.5094 27.109C37.2198 28.549 36.0295 29.5561 34.5694 29.7145C34.4212 29.7306 34.266 29.747 34.1039 29.7636" stroke="#0A0B1E" stroke-width="2" stroke-linecap="round" stroke-linejoin="round"/>
<path d="M19.999 34.6156C24.2257 34.6156 27.3263 34.3904 29.5259 34.12C31.5984 33.8652 32.0803 31.5884 30.4498 30.2839L21.7015 23.2853C20.7062 22.489 19.2919 22.489 18.2966 23.2853L9.54833 30.2839C7.91777 31.5884 8.39965 33.8652 10.4722 34.12C12.6718 34.3904 15.7724 34.6156 19.999 34.6156Z" stroke="#0A0B1E" stroke-width="2"/>
</svg>
