<svg width="242" height="112" viewBox="0 0 242 112" fill="none" xmlns="http://www.w3.org/2000/svg">
<rect width="241.59" height="112" transform="translate(0.347656)" fill="white"/>
<path d="M57.3029 87.3467C57.1253 87.4651 56.9477 87.5835 56.7405 87.7315C56.5332 87.8795 56.3556 88.0276 56.1484 88.1756C55.9708 88.3236 55.8524 88.5012 55.734 88.6788C55.6452 88.8564 55.6156 89.0637 55.6748 89.2709C55.6748 89.3005 55.7044 89.3301 55.7044 89.3893L55.734 89.5077L55.7636 89.6261L55.7932 89.7149C55.6748 89.9221 55.5563 90.1294 55.4379 90.307C55.3491 90.4846 55.2307 90.6622 55.1123 90.8102C54.9939 90.9583 54.8459 91.0767 54.6683 91.1655C54.461 91.2543 54.2538 91.2839 54.017 91.2839C53.7802 91.2839 53.5137 91.2247 53.2769 91.1655C53.0401 91.0767 52.8033 90.9879 52.596 90.8694C52.3592 90.751 52.152 90.603 51.9448 90.455C51.7376 90.307 51.5303 90.1294 51.3231 89.9518C51.3231 89.9221 51.3231 89.8925 51.2935 89.8629C51.2639 89.8333 51.2935 89.8037 51.2639 89.7741C51.2343 89.7445 51.2639 89.7149 51.2343 89.6853C51.2047 89.6557 51.2047 89.6261 51.2047 89.5965C51.1455 89.4189 51.0567 89.2413 50.9679 89.0933C50.8495 88.9453 50.7311 88.7972 50.583 88.6492C50.435 88.5308 50.287 88.4124 50.139 88.294C49.991 88.1756 49.8134 88.0868 49.6357 87.998L49.6653 88.0868C49.6653 88.1164 49.6949 88.146 49.6949 88.1756C49.6949 88.2052 49.7245 88.2348 49.7245 88.2644C49.7245 88.294 49.7542 88.3236 49.7542 88.3532C49.9318 88.8564 50.1686 89.3301 50.4646 89.7445C50.7607 90.159 51.1159 90.5438 51.5007 90.8694C51.8856 91.1951 52.3 91.4615 52.7737 91.6391C53.2177 91.8463 53.6914 91.9648 54.1946 91.9944C54.6683 92.024 55.1419 91.9352 55.5563 91.7575C55.9708 91.5799 56.3556 91.2839 56.6517 90.9286C56.9773 90.5438 57.2141 90.0702 57.3325 89.5669C57.4805 89.0044 57.4805 88.4124 57.3325 87.8203L57.3029 87.3467Z" fill="black"/>
<path d="M37.9722 63.1908L37.8242 63.25L37.6762 63.3388L37.5282 63.4276L37.3802 63.5164C37.1137 63.694 36.8473 63.8716 36.6105 64.0492C36.3736 64.2269 36.1368 64.4341 35.9296 64.6709C35.7224 64.9077 35.5152 65.1741 35.3375 65.4406C35.1303 65.7662 34.9527 66.1214 34.8047 66.4767C35.2783 66.4175 35.752 66.4175 36.2256 66.4767C36.7289 66.5359 37.2025 66.6839 37.6762 66.8615C38.1794 67.0687 38.6827 67.3352 39.1563 67.6312C39.6892 67.9864 40.1924 68.3713 40.6661 68.7857L38.7123 62.9243L38.5347 62.9539L38.3571 63.0131L38.1794 63.0723L37.9722 63.1908Z" fill="black"/>
<path d="M39.5713 62.8652L41.5251 68.549L45.8471 68.6082C45.4327 67.7497 44.9294 66.9504 44.3966 66.1808C43.9229 65.5295 43.4197 64.9374 42.8276 64.4046C42.354 63.9605 41.7915 63.5757 41.1995 63.2797C40.6666 63.0429 40.1337 62.8948 39.5713 62.8652Z" fill="black"/>
<path d="M42.1162 70.3545C42.8267 71.213 43.478 72.1011 44.07 73.0484C44.7509 74.1141 45.3725 75.239 45.9054 76.3935C46.4975 77.6368 47.0599 78.9394 47.5632 80.3603C48.096 81.7813 48.5697 83.291 49.0137 84.8896C49.0433 84.2087 49.0433 83.4982 49.0433 82.7582C49.0433 82.0477 48.9841 81.3076 48.9249 80.5675C48.8657 79.8275 48.7769 79.0874 48.6881 78.3177C48.5697 77.548 48.4513 76.808 48.3032 76.0383C48.1848 75.535 48.096 75.0318 47.9776 74.5581C47.8592 74.0549 47.7408 73.6108 47.5928 73.1372C47.4448 72.6635 47.3263 72.2195 47.1487 71.805C47.0007 71.361 46.8527 70.9466 46.6751 70.5321L42.1162 70.3545Z" fill="black"/>
<path d="M32.3477 28.437C32.4661 29.5915 32.6141 30.7757 32.7621 31.9894C32.9397 33.1735 33.0877 34.3872 33.2654 35.6306C33.443 36.8443 33.6502 38.0876 33.8574 39.3309C34.0646 40.5743 34.3015 41.8472 34.5383 43.1201C34.8639 44.7779 35.2192 46.4061 35.5744 48.0046C35.9296 49.6032 36.3145 51.1425 36.6993 52.6819C37.0841 54.1917 37.4986 55.6718 37.9426 57.1224C38.3571 58.5433 38.8011 59.9346 39.2452 61.2964C39.4228 61.2668 39.63 61.2372 39.8372 61.2668C40.0444 61.2668 40.2221 61.2964 40.4293 61.326C40.6365 61.3556 40.8141 61.4148 41.0213 61.474C41.2286 61.5332 41.4358 61.622 41.6134 61.7108C41.1694 60.6451 40.7253 59.5498 40.2813 58.3953C39.8372 57.2704 39.4228 56.1159 39.0083 54.9317C38.5939 53.7476 38.1795 52.5635 37.7946 51.3202C37.4098 50.0768 37.0249 48.8335 36.6401 47.5606C36.1368 45.9028 35.6928 44.245 35.2784 42.5873C34.8639 40.9295 34.4791 39.3309 34.1238 37.7324C33.7686 36.1338 33.443 34.5648 33.1765 33.0255C32.8509 31.4565 32.5845 29.9172 32.3477 28.437Z" fill="black"/>
<path d="M70.7729 52.7412C70.5361 52.7708 70.2696 52.83 70.0032 52.8892C69.7368 52.9484 69.5 53.0076 69.2631 53.0668C68.9967 53.126 68.7599 53.1852 68.5231 53.274C68.2862 53.3332 68.0198 53.422 67.783 53.5108L66.9541 60.734C67.7534 59.8163 68.6119 58.9578 69.5296 58.1289C70.3881 57.3592 71.3057 56.6192 72.2234 55.9383C73.1411 55.287 74.0884 54.695 75.0653 54.1621C76.0126 53.6589 76.9895 53.1852 77.996 52.8004C77.4336 52.6228 76.8711 52.5043 76.3087 52.4155C75.7462 52.3563 75.1837 52.2971 74.6213 52.3267C74.0588 52.3267 73.4668 52.3859 72.8451 52.4451C72.2234 52.5043 71.5722 52.5931 70.8913 52.7116H70.8617H70.8321L70.7729 52.7412Z" fill="black"/>
<path d="M64.6148 63.7236L54.1353 68.9338C53.9873 69.5258 53.8689 70.0883 53.7801 70.6803C53.6913 71.2724 53.6025 71.8645 53.5729 72.4861C53.5137 73.1078 53.5137 73.7295 53.5137 74.3215C53.5137 74.9136 53.5433 75.5648 53.6321 76.1865C53.7209 77.1042 53.8689 78.0219 54.1057 78.91C54.313 79.7685 54.5794 80.627 54.905 81.4855C55.2306 82.2847 55.6155 83.084 56.0299 83.8537C56.4444 84.5938 56.9476 85.3043 57.4509 85.9851C57.5397 81.8111 58.2502 77.6667 59.5823 73.6999C60.204 71.8645 60.944 70.0883 61.8025 68.3713C62.6314 66.7727 63.5491 65.2038 64.6148 63.7236Z" fill="black"/>
<path opacity="0.7" d="M61.4472 20C61.8025 21.3321 62.0985 22.6939 62.3057 24.0556C62.5425 25.4766 62.6906 26.9567 62.8386 28.4665C62.9866 29.9762 63.0458 31.6044 63.1346 33.2622C63.1938 34.9199 63.2234 36.6961 63.253 38.4723C63.3122 42.6463 63.0162 46.0211 62.4537 48.8334C61.9801 51.2904 61.24 53.6587 60.1743 55.9381C59.3158 57.6847 58.3981 59.372 57.362 61.0002C56.4443 62.5396 55.6746 63.9901 55.1714 65.6775C55.1418 65.7071 55.1418 65.7663 55.1122 65.7959C55.0826 65.8255 55.0826 65.8847 55.053 65.9143L54.9938 66.0327C54.9642 66.0623 54.9642 66.1215 54.9346 66.1511L64.8516 61.385C65.3548 58.2175 65.6805 55.2276 65.8581 52.4449C66.0357 49.751 66.0653 47.2052 66.0357 44.8665C65.9765 42.5575 65.8581 40.4261 65.6509 38.4723C65.4436 36.5185 65.2068 34.7719 64.9404 33.1437C64.7332 31.93 64.4964 30.7459 64.2595 29.5618C63.9931 28.4073 63.7267 27.2823 63.4306 26.187C63.1346 25.0917 62.809 24.026 62.4833 22.9899C62.1577 21.9538 61.8321 20.9769 61.4472 20Z" fill="black"/>
<path d="M102.655 75.5352C95.8763 75.5352 92.8271 72.1604 92.8271 67.7496L93.1528 67.4239H97.2084L97.534 67.7496C97.534 70.1178 98.8958 71.4796 102.951 71.4796C106 71.4796 107.688 70.4731 107.688 68.4304C107.688 66.0622 106.326 65.3813 101.59 64.7005C96.8532 64.0196 93.1232 62.3322 93.1232 57.5957C93.1232 54.221 95.8171 51.1719 102.271 51.1719C108.724 51.1719 111.418 54.221 111.418 58.2766L111.092 58.6022H107.037L106.711 58.2766C106.711 56.234 105.704 55.2275 101.974 55.2275C98.9254 55.2275 97.9189 56.234 97.9189 57.5957C97.9189 59.6383 99.2806 60.2896 104.017 60.9705C108.754 61.6514 112.484 63.6644 112.484 68.4304C112.454 72.1604 109.76 75.5352 102.655 75.5352Z" fill="black"/>
<path d="M123.969 75.5352C120.92 75.5352 119.558 73.8478 119.558 73.8478H119.233V81.6334L118.877 81.9591H114.822L114.496 81.6334V58.6023L114.822 58.2766H118.552L118.877 58.6023L119.203 59.6088H119.529C119.529 59.6088 120.89 57.9214 123.939 57.9214C127.995 57.9214 131.399 61.2961 131.399 66.7135C131.429 72.1605 128.025 75.5352 123.969 75.5352ZM122.963 61.977C120.269 61.977 119.233 64.0196 119.233 66.7135C119.233 69.4074 120.239 71.45 122.963 71.45C125.656 71.45 126.693 69.4074 126.693 66.7135C126.693 64.0196 125.656 61.977 122.963 61.977Z" fill="black"/>
<path d="M144.278 62.3323H141.91C139.216 62.3323 138.18 63.694 138.18 66.7431V74.8544L137.854 75.18H133.798L133.473 74.8544V58.6023L133.798 58.2767H137.528L137.854 58.6023L138.18 59.6088H138.505C138.505 59.6088 139.186 58.2471 142.235 58.2471H144.278L144.603 58.5727V61.9474L144.278 62.3323Z" fill="black"/>
<path d="M156.799 75.5349C155.437 78.9097 154.105 80.9523 149.339 80.9523H147.622L147.296 80.6267V77.2519L147.622 76.9263H149.309C150.997 76.9263 151.352 76.6006 151.677 75.5645V75.2389L146.319 61.9767V58.602L146.645 58.2764H149.694L150.02 58.602L154.075 70.1176H154.401L158.457 58.602L158.782 58.2764H161.831L162.157 58.602V61.9767L156.799 75.5349Z" fill="black"/>
<path d="M178.825 75.2095H176.782L176.101 74.8838L171.365 69.7921H171.039L168.996 71.8347L168.671 72.5156V74.8838L168.345 75.2391H164.29L163.964 74.9134V51.8823L164.29 51.5566H168.345L168.671 51.8823V65.4405H168.996L175.775 58.6614L176.456 58.3357H178.499L178.825 58.6614V62.0361L174.769 66.0917V66.4174L179.15 71.5091V74.8838L178.825 75.2095Z" fill="black"/>
<path d="M196.438 68.0752L196.112 68.4009H185.632L185.307 68.7265C185.307 69.4074 185.988 71.4204 188.682 71.4204C189.688 71.4204 190.724 71.0947 191.05 70.4139L191.375 70.0882H195.431L195.757 70.4139C195.431 72.4565 193.714 75.5056 188.652 75.5056C182.909 75.5056 180.186 71.45 180.186 66.7135C180.186 61.977 182.879 57.9214 188.297 57.9214C193.714 57.9214 196.408 61.977 196.408 66.7135L196.438 68.0752ZM191.346 64.7005C191.346 64.3748 191.02 62.0066 188.297 62.0066C185.603 62.0066 185.248 64.3748 185.248 64.7005L185.573 65.0261H190.991L191.346 64.7005Z" fill="black"/>
<path d="M209.641 62.3323H207.273C204.579 62.3323 203.543 63.694 203.543 66.7431V74.8544L203.217 75.18H199.162L198.836 74.8544V58.6023L199.162 58.2767H202.862L203.188 58.6023L203.513 59.6088H203.839C203.839 59.6088 204.52 58.2471 207.569 58.2471H209.611L209.937 58.5727V61.9474L209.641 62.3323Z" fill="black"/>
</svg>
