<svg width="40" height="40" viewBox="0 0 40 40" fill="none" xmlns="http://www.w3.org/2000/svg">
<path d="M8 17.5H33V30.5C33 31.7982 32.5707 33.0775 31.4943 33.8033C29.7631 34.9707 26.3741 36.5 20.5 36.5C14.6259 36.5 11.2369 34.9707 9.50568 33.8033C8.42931 33.0775 8 31.7982 8 30.5V17.5Z" stroke="#0A0B1E" stroke-width="2"/>
<path d="M37.506 17.1638L22.6767 27.0565C21.361 27.9342 19.6516 27.9542 18.3157 27.1076L2.66559 17.1893C1.4264 16.404 1.42641 14.596 2.6656 13.8107L18.3157 3.89243C19.6516 3.04578 21.361 3.06582 22.6767 3.94354L37.506 13.8362C38.6928 14.628 38.6928 16.372 37.506 17.1638Z" fill="white" stroke="#0A0B1E" stroke-width="2"/>
<circle cx="20.5" cy="15" r="1.5" fill="#0A0B1E"/>
<path d="M38 17V29" stroke="#0A0B1E" stroke-width="2" stroke-linecap="round"/>
</svg>
