<svg width="206" height="112" viewBox="0 0 206 112" fill="none" xmlns="http://www.w3.org/2000/svg">
<rect width="205.537" height="112" transform="translate(0.234375)" fill="white"/>
<g clip-path="url(#clip0_456_125252)">
<path d="M77.9367 52.1215C77.9367 49.5825 75.4677 46.8859 71.1952 46.8859C66.3973 46.8859 61.1266 50.4055 60.3212 57.4272C59.4982 64.5189 63.9108 67.6708 68.3585 67.6708C72.8061 67.6708 75.135 65.9373 77.5164 63.6259C75.4677 61.0518 72.8236 62.2426 72.3158 62.5052C71.7555 62.7854 71.0376 63.1706 69.5667 63.1706C67.8507 63.1706 66.0996 62.4002 66.0996 59.1957C77.0962 58.1101 77.9367 54.6605 77.9367 52.1215ZM72.4909 52.5418C72.4209 53.3297 72.1057 54.678 66.5374 55.431C67.7106 51.2635 69.9519 50.9483 70.985 50.9483C71.9481 50.9483 72.561 51.7013 72.4909 52.5418ZM53.8598 53.2247C53.8598 53.2247 51.4959 60.6491 51.3033 61.262C51.2332 60.6316 49.4997 47.3061 49.4997 47.3061C45.4723 47.3061 43.3185 50.1778 42.1803 53.2072C42.1803 53.2072 39.3086 60.6491 39.0635 61.2795C39.0459 60.7016 38.6257 53.2947 38.6257 53.2947C38.3805 49.5825 34.9835 47.3236 32.2344 47.3236L35.5614 67.5132C39.7814 67.4957 42.0577 64.6415 43.2485 61.6122C43.2485 61.6122 45.7875 55.0458 45.8925 54.7481C45.9101 55.0282 47.7136 67.5132 47.7136 67.5132C51.9512 67.5132 54.2275 64.8341 55.4533 61.9099L61.3893 47.3236C57.2043 47.3236 54.998 50.1778 53.8598 53.2247ZM93.486 46.8509C90.8769 46.8509 88.8807 48.2692 87.1997 50.3529V50.3354L88.7056 38.2007C85.2386 38.2007 82.4194 41.2125 81.8766 45.6952L79.25 67.3556C81.2462 67.3556 83.3649 66.7778 84.5031 65.3069C85.5187 66.6202 87.0421 67.6708 89.301 67.6708C95.1495 67.6708 99.1594 60.8767 99.1594 54.5029C99.1244 48.6895 96.3052 46.8509 93.486 46.8509ZM92.9432 57.2696C92.3303 60.8242 90.3516 63.2407 88.443 63.2407C86.5168 63.2407 85.6938 62.3826 85.6938 62.3826C86.0616 59.2658 86.2892 57.3571 86.9896 55.7112C87.69 54.0652 89.3535 51.4386 91.0871 51.4386C92.7856 51.4386 93.556 53.6974 92.9432 57.2696ZM113.763 47.3236H109.683L109.701 47.1135C109.981 44.4519 110.611 43.0511 112.695 42.8234C114.113 42.6834 114.744 41.9479 114.901 41.1424C115.024 40.5121 115.409 38.3233 115.409 38.3233C107.214 38.2707 104.64 41.8078 103.975 47.2011L103.957 47.3236H103.87C102.539 47.3236 101.068 48.8295 100.823 50.7382L100.735 51.4386H103.467L101.173 70.3849L100.473 73.782C100.56 73.782 100.665 73.7995 100.753 73.7995C104.588 73.6594 107.039 70.6301 107.582 66.2349L109.368 51.4386H110.646C111.907 51.4386 113.378 50.1778 113.641 48.0766L113.763 47.3236ZM134.986 46.9734C130.275 46.9734 125.828 50.4405 124.462 55.8863C123.096 61.332 125.162 67.7759 132.097 67.7759C139.013 67.7759 143.006 61.0694 143.006 55.4835C143.006 49.9327 139.241 46.9734 134.986 46.9734ZM136.894 57.0945C136.649 59.5635 135.564 63.3107 132.587 63.3107C129.593 63.3107 130.013 58.9331 130.311 56.8493C130.626 54.6255 131.869 51.4561 134.548 51.4561C136.947 51.4561 137.175 54.3103 136.894 57.0945ZM166.277 53.2247C166.277 53.2247 163.913 60.6491 163.72 61.262C163.65 60.6316 161.917 47.3061 161.917 47.3061C157.889 47.3061 155.736 50.1778 154.598 53.2072C154.598 53.2072 151.726 60.6491 151.481 61.2795C151.463 60.7016 151.043 53.2947 151.043 53.2947C150.798 49.5825 147.401 47.3236 144.652 47.3236L147.961 67.5132C152.181 67.4957 154.457 64.6415 155.648 61.6122C155.648 61.6122 158.187 55.0458 158.275 54.7481C158.31 55.0282 160.096 67.5132 160.096 67.5132C164.333 67.5132 166.61 64.8341 167.835 61.9099L173.771 47.3236C169.604 47.3236 167.398 50.1778 166.277 53.2247ZM117.615 38.3233L114.183 66.0073L113.483 69.4218C113.57 69.4218 113.676 69.4394 113.763 69.4394C117.458 69.3868 120.084 66.1474 120.575 62.0675L122.553 46.1855C123.149 41.3351 120.259 38.3233 117.615 38.3233Z" fill="black"/>
</g>
<defs>
<clipPath id="clip0_456_125252">
<rect width="141.537" height="35.5988" fill="white" transform="translate(32.2344 38.2007)"/>
</clipPath>
</defs>
</svg>
