<svg width="40" height="40" viewBox="0 0 40 40" fill="none" xmlns="http://www.w3.org/2000/svg">
<path d="M2.12141 7.49505C2.50259 4.58068 4.84557 2.55091 7.77404 2.30012C10.5428 2.06301 14.5799 1.84155 20.0011 1.84155C25.4224 1.84155 29.4595 2.06301 32.2282 2.30012C35.1567 2.55091 37.4996 4.58069 37.8808 7.49505C38.1322 9.4167 38.3344 11.9614 38.3344 15.1749C38.3344 18.3883 38.1322 20.9331 37.8808 22.8547C37.4996 25.7691 35.1567 27.7989 32.2282 28.0497C29.4595 28.2868 25.4224 28.5082 20.0011 28.5082C14.5799 28.5082 10.5428 28.2868 7.77404 28.0497C4.84557 27.7989 2.50259 25.7691 2.1214 22.8547C1.87006 20.9331 1.66779 18.3883 1.66779 15.1749C1.66779 11.9614 1.87006 9.4167 2.12141 7.49505Z" stroke="#0A0B1E" stroke-width="2"/>
<path d="M9.2576 32.6086C9.2576 32.6086 13.4657 32.9453 21.0402 32.9453C28.6147 32.9453 32.8227 32.6086 32.8227 32.6086" stroke="#0A0B1E" stroke-width="2" stroke-linecap="round" stroke-linejoin="round"/>
<path d="M26.9316 28.4006L33.6645 38.5" stroke="#0A0B1E" stroke-width="2" stroke-linecap="round" stroke-linejoin="round"/>
<path d="M8.41614 38.5L15.149 28.4007" stroke="#0A0B1E" stroke-width="2" stroke-linecap="round" stroke-linejoin="round"/>
<path d="M21.0786 12.2471C21.1567 11.3376 21.8376 10.6567 22.7471 10.5786C23.2666 10.534 23.931 10.5 24.7497 10.5C25.5684 10.5 26.2328 10.534 26.7523 10.5786C27.6618 10.6567 28.3427 11.3376 28.4208 12.2471C28.4654 12.7666 28.4994 13.431 28.4994 14.2497C28.4994 15.0684 28.4654 15.7328 28.4208 16.2523C28.3427 17.1618 27.6618 17.8427 26.7523 17.9208C26.2328 17.9654 25.5684 17.9994 24.7497 17.9994C23.931 17.9994 23.2666 17.9654 22.7471 17.9208C21.8376 17.8427 21.1567 17.1618 21.0786 16.2523C21.034 15.7328 21 15.0684 21 14.2497C21 13.431 21.034 12.7666 21.0786 12.2471Z" fill="white" stroke="#0A0B1E" stroke-width="2"/>
<path d="M25.0786 8.74706C25.1567 7.83761 25.8376 7.15665 26.7471 7.07857C27.2666 7.03396 27.931 7 28.7497 7C29.5684 7 30.2328 7.03396 30.7523 7.07857C31.6618 7.15665 32.3427 7.83761 32.4208 8.74706C32.4654 9.26662 32.4994 9.93099 32.4994 10.7497C32.4994 11.5684 32.4654 12.2328 32.4208 12.7523C32.3427 13.6618 31.6618 14.3427 30.7523 14.4208C30.2328 14.4654 29.5684 14.4994 28.7497 14.4994C27.931 14.4994 27.2666 14.4654 26.7471 14.4208C25.8376 14.3427 25.1567 13.6618 25.0786 12.7523C25.034 12.2328 25 11.5684 25 10.7497C25 9.93099 25.034 9.26662 25.0786 8.74706Z" fill="white" stroke="#0A0B1E" stroke-width="2"/>
<line x1="1" y1="-1" x2="7" y2="-1" transform="matrix(0.707107 -0.707107 -0.707107 -0.707107 7.26389 11.6278)" stroke="#0A0B1E" stroke-width="2" stroke-linecap="round"/>
<line x1="12.686" y1="11.6278" x2="8.44337" y2="7.38517" stroke="#0A0B1E" stroke-width="2" stroke-linecap="round"/>
<circle cx="21.5" cy="22.5" r="1.5" fill="#0A0B1E"/>
<circle cx="9.5" cy="22.5" r="1.5" fill="#0A0B1E"/>
<circle cx="9.5" cy="17.5" r="1.5" fill="#0A0B1E"/>
<circle cx="15.5" cy="22.5" r="1.5" fill="#0A0B1E"/>
<circle cx="15.5" cy="17.5" r="1.5" fill="#0A0B1E"/>
</svg>
