<svg width="106" height="106" viewBox="0 0 106 106" fill="none" xmlns="http://www.w3.org/2000/svg">
<path d="M67.1328 77.5219L52.9997 53.0023L38.8665 28.478" stroke="#0A0B1E" stroke-width="10.9503" stroke-miterlimit="10" stroke-linecap="square"/>
<path d="M67.1328 28.478L52.9997 53.0023L38.8665 77.5219" stroke="#0A0B1E" stroke-width="10.9503" stroke-miterlimit="10" stroke-linecap="square"/>
<path d="M26.3028 58.2491L21.0559 59.8137L17.9268 49.32L23.1736 47.7555L26.3028 58.2491ZM80.2167 47.6278L85.5912 46.5828L87.6812 57.3318L82.3067 58.3768L80.2167 47.6278ZM24.7382 53.0023C23.1736 47.7555 23.1745 47.7552 23.1755 47.7549C23.1759 47.7548 23.177 47.7545 23.1779 47.7542C23.1796 47.7537 23.1817 47.7531 23.184 47.7524C23.1888 47.7509 23.1949 47.7491 23.2022 47.747C23.2169 47.7426 23.2368 47.7368 23.2617 47.7295C23.3114 47.715 23.3811 47.6947 23.4698 47.6693C23.6471 47.6184 23.9003 47.5468 24.2207 47.4589C24.8609 47.2833 25.7722 47.042 26.8833 46.7709C29.0959 46.2312 32.1482 45.562 35.4586 45.0634C38.7359 44.5697 42.4482 44.2148 45.9269 44.3816C49.215 44.5393 53.2308 45.1948 56.3119 47.5353L49.688 56.255C49.3091 55.9672 48.0621 55.4469 45.4024 55.3193C42.9333 55.2009 40.0126 55.4513 37.0895 55.8915C34.1995 56.3268 31.4839 56.92 29.4786 57.4092C28.4809 57.6526 27.6707 57.8674 27.1168 58.0193C26.8401 58.0952 26.6281 58.1552 26.4894 58.195C26.4201 58.2149 26.3691 58.2297 26.3376 58.2389C26.3219 58.2435 26.311 58.2467 26.3052 58.2484C26.3022 58.2493 26.3006 58.2498 26.3002 58.2499C26.3 58.25 26.3001 58.2499 26.3005 58.2498C26.3007 58.2498 26.3013 58.2496 26.3014 58.2496C26.302 58.2494 26.3028 58.2491 24.7382 53.0023ZM56.3119 47.5353C56.8513 47.9451 58.2806 48.5309 60.9756 48.8483C63.4996 49.1455 66.458 49.135 69.3907 48.9551C72.2953 48.777 75.021 48.4429 77.0305 48.1505C78.0309 48.0049 78.8432 47.8712 79.3987 47.7752C79.6762 47.7272 79.889 47.6888 80.0283 47.6631C80.098 47.6503 80.1492 47.6406 80.181 47.6346C80.1969 47.6316 80.2079 47.6295 80.2139 47.6283C80.2169 47.6278 80.2187 47.6274 80.2191 47.6273C80.2194 47.6273 80.2193 47.6273 80.2189 47.6274C80.2187 47.6274 80.2181 47.6275 80.218 47.6275C80.2174 47.6277 80.2167 47.6278 81.2617 53.0023C82.3067 58.3768 82.3059 58.377 82.3049 58.3771C82.3045 58.3772 82.3035 58.3774 82.3026 58.3776C82.3009 58.3779 82.2989 58.3783 82.2965 58.3788C82.2918 58.3797 82.2858 58.3808 82.2785 58.3822C82.264 58.385 82.2443 58.3888 82.2195 58.3935C82.1701 58.4028 82.1007 58.4159 82.0124 58.4321C81.8357 58.4647 81.5832 58.5103 81.2637 58.5655C80.625 58.6759 79.716 58.8253 78.6074 58.9866C76.3991 59.308 73.3569 59.6827 70.0611 59.8849C66.7933 60.0853 63.1188 60.1266 59.6949 59.7234C56.4421 59.3404 52.6087 58.4736 49.688 56.255L56.3119 47.5353Z" fill="#0A0B1E"/>
</svg>
